<?xml version="1.0" encoding="UTF-8"?>
<svg version="1.1" xmlns="http://www.w3.org/2000/svg" width="3000" height="2000">
<path d="M0 0 C0.82665665 -0.0049649 1.65331329 -0.00992981 2.50502014 -0.01504517 C5.24049721 -0.0296484 7.97591612 -0.03646895 10.71142578 -0.04199219 C12.62273153 -0.04774912 14.53403727 -0.05350679 16.44534302 -0.05926514 C20.45851916 -0.06977265 24.47167532 -0.07561564 28.48486328 -0.07910156 C33.59301815 -0.08455824 38.70090268 -0.10852635 43.80897331 -0.13707352 C47.76244843 -0.1558361 51.71586052 -0.16091289 55.66937637 -0.16243744 C57.55017688 -0.16543846 59.43097697 -0.17337922 61.31173325 -0.18662262 C91.01807306 -0.3807134 91.01807306 -0.3807134 100.28564453 8.62207031 C111.92172413 21.04555379 115.21064988 40.1271377 119.19580078 56.18066406 C119.60595332 57.81385332 120.01666995 59.44690101 120.42790222 61.07981873 C121.3026409 64.55727077 122.17401574 68.0355403 123.04263306 71.51452637 C125.15661505 79.98017724 127.28868305 88.44128503 129.41851997 96.90295792 C130.14724023 99.79886405 130.87528177 102.69494024 131.60325623 105.59103394 C134.45843984 116.9441179 137.33871293 128.29029013 140.26220703 139.62597656 C140.43966965 140.31417795 140.61713226 141.00237934 140.79997253 141.71143532 C141.69955683 145.19915802 142.59985218 148.68669682 143.50042725 152.17416382 C152.92362771 188.67012703 162.11924271 225.22310854 171.31398964 261.77711487 C179.58858395 294.67289133 187.86412926 327.56758389 196.34423828 360.41113281 C204.619694 392.47210142 212.74347475 424.57133025 220.84735447 456.6760124 C222.10434317 461.65511685 223.36318716 466.63374986 224.62283325 471.61218262 C226.32324778 478.33293288 228.01973837 485.05466332 229.7135582 491.77707863 C230.34742388 494.29050479 230.98248691 496.8036293 231.61877823 499.31644249 C232.49503548 502.77808394 233.36687153 506.24080898 234.23754883 509.70385742 C234.62765562 511.23878531 234.62765562 511.23878531 235.02564335 512.80472183 C235.37564223 514.20262514 235.37564223 514.20262514 235.73271179 515.62876892 C235.9366389 516.43693526 236.14056601 517.2451016 236.35067272 518.07775784 C236.78173828 520.16113281 236.78173828 520.16113281 236.78173828 523.16113281 C237.44173828 523.16113281 238.10173828 523.16113281 238.78173828 523.16113281 C238.97043739 521.44349731 238.97043739 521.44349731 239.16294861 519.69116211 C239.71795982 515.27349694 240.64304843 511.00643976 241.68237305 506.68066406 C241.97237482 505.4509938 241.97237482 505.4509938 242.26823521 504.1964817 C242.91591315 501.4545785 243.56956835 498.71413555 244.22314453 495.97363281 C244.69382026 493.98596259 245.16409469 491.99819732 245.63400269 490.01034546 C246.65620532 485.68949677 247.68098827 481.36927108 248.70773315 477.04949951 C250.38069399 470.0104229 252.04771877 462.96994877 253.71362305 455.92919922 C254.29709824 453.46340809 254.88057915 450.99761831 255.46406555 448.53182983 C255.75819147 447.28883495 256.05231739 446.04584007 256.35535622 444.76517868 C257.2704787 440.89874304 258.18615885 437.0324397 259.10197449 433.16616821 C263.54052591 414.42620948 267.95985776 395.6817803 272.36767578 376.93457031 C272.52676493 376.25797001 272.68585408 375.58136971 272.84976411 374.88426638 C274.47853171 367.95714791 276.10701837 361.02996342 277.73531491 354.10273421 C281.27630515 339.03843707 284.81930079 323.97461187 288.36376953 308.91113281 C288.53445442 308.18573539 288.70513931 307.46033797 288.88099647 306.71295881 C294.26051688 283.85109701 299.65159935 260.9919796 305.05112648 238.134835 C305.60540044 235.78848897 306.15964441 233.44213585 306.71388245 231.09578133 C309.99785288 217.19336161 313.28222478 203.29103685 316.56939697 189.38937378 C318.67881478 180.46844853 320.78750823 171.54735241 322.89501953 162.62597656 C323.14972047 161.54781996 323.14972047 161.54781996 323.40956688 160.44788241 C327.91583874 141.37082145 332.39540525 122.28785715 336.83164978 103.19436646 C337.6236197 99.78601401 338.41637321 96.37784474 339.20935059 92.96972656 C341.34958367 83.76895424 343.48781709 74.56778686 345.60723782 65.36219501 C346.43423103 61.77616868 347.2669081 58.19147892 348.10100746 54.60709953 C348.47434757 52.99687219 348.84521166 51.386068 349.21315575 49.77459908 C356.5691369 17.56866936 356.5691369 17.56866936 366.09423828 7.78613281 C378.93186386 0.02384758 392.47622453 -0.15417118 407.08642578 -0.13964844 C408.73967595 -0.14354749 410.39292515 -0.14788458 412.0461731 -0.15263367 C415.49370587 -0.16004814 418.94113616 -0.15983951 422.38867188 -0.15454102 C426.76799125 -0.14875176 431.14688694 -0.16568762 435.5261364 -0.18888569 C438.93574401 -0.20374301 442.34525237 -0.20447859 445.75488663 -0.20137596 C447.36773645 -0.20188313 448.98059274 -0.20700483 450.59341049 -0.21718788 C477.79060707 -0.36788164 477.79060707 -0.36788164 487.78173828 8.16113281 C494.57655842 14.95595295 497.6962008 23.18920938 500.04736328 32.38769531 C500.26044128 33.21018265 500.47351929 34.03266998 500.6930542 34.88008118 C503.63151954 46.33069935 506.32015741 57.84272411 509.03173828 69.34863281 C509.63959971 71.9200155 510.24764947 74.49135299 510.85592651 77.06263733 C512.32340812 83.26785912 513.7883315 89.47368205 515.25236285 95.67971867 C516.97501898 102.98156492 518.70044581 110.28275569 520.42590022 117.5839411 C524.53766687 134.98340106 528.64416898 152.38410191 532.74934387 169.7851181 C533.75202461 174.03525648 534.75484263 178.28536246 535.75769043 182.53546143 C543.04894338 213.43634871 550.33436823 244.33860828 557.61621094 275.24171448 C563.32828265 299.48261866 569.04495399 323.72243715 574.7624321 347.96206665 C576.03006598 353.33635309 577.29762505 358.71065718 578.56518555 364.08496094 C580.58639761 372.65462904 582.60763642 381.22429083 584.62890625 389.79394531 C584.88327674 390.87240974 585.13764723 391.95087418 585.39972591 393.06201935 C585.78589754 394.69928608 585.78589754 394.69928608 586.17987061 396.36962891 C590.47873874 414.59570622 594.77756731 432.82179287 599.07629204 451.04790401 C600.72665805 458.04525957 602.37706708 465.04260497 604.02751255 472.03994179 C605.04636436 476.359573 606.06517829 480.67921314 607.08398247 484.99885559 C607.55248888 486.98524852 608.02101059 488.97163784 608.48954964 490.95802307 C608.92704256 492.81279413 609.36448214 494.66757778 609.80186367 496.52237511 C610.21325965 498.266398 610.62495953 500.01034925 611.03699589 501.75422096 C612.01429654 505.89282555 612.9852631 510.03273248 613.94369507 514.17575073 C614.12731692 514.96620002 614.31093878 515.7566493 614.50012493 516.5710516 C614.8440024 518.05261709 615.18589289 519.53464572 615.52542591 521.01721287 C616.36696942 524.68700453 616.36696942 524.68700453 617.78173828 528.16113281 C620.74201111 516.76580273 623.70011249 505.36990968 626.65673828 493.97363281 C626.88699707 493.08610321 627.11725586 492.19857361 627.35449219 491.28414917 C635.53423697 459.75272414 643.66791694 428.2095793 651.78173828 396.66113281 C659.58511726 366.31997446 667.40839294 335.98421254 675.28173828 305.66113281 C683.1116887 275.50428219 690.89449216 245.33547943 698.65673828 215.16113281 C706.92312807 183.02870282 715.19661369 150.8981402 723.49582672 118.77416992 C724.20078773 116.0450603 724.9054659 113.31587781 725.61004639 110.58666992 C726.0596766 108.84521077 726.5093224 107.10375564 726.95898438 105.36230469 C727.2885998 104.08574666 727.2885998 104.08574666 727.62487411 102.78339958 C728.70602071 98.5979557 729.78902837 94.41300736 730.87585449 90.22903442 C731.08765728 89.41361616 731.29946007 88.5981979 731.51768112 87.75806999 C731.94592916 86.10939985 732.37423572 84.4607449 732.80260086 82.81210518 C734.19566567 77.44290883 735.57175222 72.06958234 736.93924236 66.69381809 C737.90769566 62.893351 738.884286 59.09499991 739.86213875 55.29694176 C740.32276538 53.50014321 740.77993919 51.70245501 741.23321342 49.90378761 C750.44032926 13.39347105 750.44032926 13.39347105 762.35205078 5.44628906 C774.41392557 -0.48155539 787.43503385 -0.15148548 800.54736328 -0.13964844 C802.35333351 -0.14354297 804.15930283 -0.14787918 805.965271 -0.15263367 C809.7306212 -0.16005488 813.49587755 -0.15983278 817.26123047 -0.15454102 C822.07508056 -0.14872571 826.88854848 -0.16574681 831.70233536 -0.18888569 C835.42391181 -0.20363928 839.14539625 -0.20449296 842.86699677 -0.20137596 C844.64193229 -0.20188749 846.41687319 -0.20709355 848.19178009 -0.21718788 C850.67286448 -0.22957857 853.15320414 -0.22274726 855.63427734 -0.21118164 C856.35858948 -0.21882538 857.08290161 -0.22646912 857.8291626 -0.23434448 C864.18472101 -0.16913934 868.62018334 1.43188886 873.59423828 5.41113281 C877.86984443 10.78618054 878.13470257 16.52260108 877.78173828 23.16113281 C877.40987048 26.21871736 876.84766217 29.21839085 876.23095703 32.23535156 C876.05521652 33.09956223 875.87947601 33.96377289 875.69841003 34.85417175 C873.65594818 44.40285057 870.68545604 53.62146122 867.6177063 62.88189697 C865.79862907 68.37704307 864.02021322 73.88542554 862.23486328 79.39160156 C861.86301407 80.53504028 861.49116486 81.678479 861.10804749 82.85656738 C857.23244386 94.79605664 853.53024063 106.7870306 849.84423828 118.78613281 C848.42099844 123.41151502 846.99629415 128.03644464 845.57080078 132.66113281 C845.19756683 133.87203079 844.82433289 135.08292877 844.43978882 136.33052063 C839.50900478 152.30944606 834.51209459 168.26776454 829.51961517 184.2274971 C827.36734862 191.10783825 825.21564776 197.98835636 823.06387711 204.86885262 C822.52093086 206.60496541 821.9779697 208.34107354 821.43499374 210.07717705 C815.76645618 228.20219434 810.11221005 246.33165266 804.46271133 264.46261215 C803.71869386 266.85038002 802.97463282 269.2381343 802.2305603 271.62588501 C799.49886185 280.39206431 796.76749175 289.15834589 794.03630161 297.92468357 C789.45547695 312.62780767 784.87413089 327.33076925 780.29215622 342.033535 C779.53272168 344.4704772 778.77333051 346.90743291 778.01394653 349.34439087 C772.88369553 365.80764627 767.7505321 382.26997445 762.60205078 398.72753906 C762.18515 400.06027726 761.76824936 401.3930155 761.35134888 402.72575378 C760.52792278 405.35799447 759.70448399 407.99023118 758.88104248 410.62246704 C758.67885857 411.26878208 758.47667465 411.91509712 758.26836395 412.58099747 C757.86079034 413.88385577 757.45320266 415.18670968 757.04560089 416.48955917 C752.14976308 432.13909687 747.26972588 447.79338057 742.42236328 463.45800781 C742.19655704 464.18770531 741.97075081 464.9174028 741.73810196 465.66921234 C739.89743588 471.61777465 738.05731545 477.56650577 736.21721649 483.51524353 C728.28051829 509.17141109 720.27196097 534.80442264 712.19052029 560.41538048 C711.06278931 563.98930108 709.93572543 567.56343172 708.80908203 571.13769531 C708.59158106 571.82762699 708.37408009 572.51755867 708.14998817 573.22839737 C705.23149916 582.49138802 702.36072546 591.76757147 699.53564453 601.05957031 C698.89643807 603.15254208 698.25711931 605.24547955 697.61767578 607.33837891 C696.4829825 611.05353753 695.36364266 614.77278282 694.25439453 618.49560547 C685.65211901 646.94795458 685.65211901 646.94795458 675.35205078 653.77050781 C662.2292129 659.89170376 649.92775502 660.32215952 635.68017578 660.32910156 C634.11471528 660.33232325 632.54925507 660.33568797 630.98379517 660.33918762 C627.71086938 660.34515066 624.43796989 660.34703055 621.16503906 660.34643555 C617.01338907 660.34633433 612.86191164 660.35995775 608.71030235 660.37720776 C605.47737893 660.38844236 602.24449564 660.39035124 599.01155472 660.38982582 C597.48326653 660.39098987 595.95497675 660.39532065 594.42670822 660.40315819 C562.62634651 660.55092995 562.62634651 660.55092995 552.09423828 651.16113281 C542.98466499 640.90271779 540.50105047 627.6005799 537.40673828 614.66113281 C536.85884609 612.4173132 536.30988457 610.1737545 535.76000977 607.93041992 C534.12494284 601.23573533 532.51238935 594.53581019 530.90411377 587.83465576 C529.71304595 582.87247899 528.51680547 577.91155455 527.3203125 572.95068359 C521.82778406 550.17116751 516.36531835 527.38449725 510.912323 504.5954895 C504.73225639 478.76886056 498.53569569 452.94619196 492.33784157 427.12382722 C491.22199383 422.47477454 490.10630395 417.825684 488.99069214 413.17657471 C479.61790285 374.11747506 470.22638257 335.06291137 460.82019043 296.01184082 C449.11164856 247.40191003 437.44235844 198.78257871 425.78173828 150.16113281 C422.6124684 158.8997572 420.5853597 167.89952468 418.44970703 176.93066406 C418.02187029 178.72646023 417.59366321 180.5221682 417.16511536 182.3177948 C416.24535835 186.17493551 415.32811071 190.03266099 414.4128418 193.89086914 C412.94669684 200.07110164 411.47499682 206.25000318 410.00244141 212.42871094 C408.20533931 219.97068707 406.40949732 227.51296095 404.61531258 235.05563164 C401.48826558 248.20100094 398.3514575 261.34401236 395.20751953 274.48535156 C394.98296082 275.42400055 394.7584021 276.36264954 394.52703857 277.32974243 C393.39783823 282.04951591 392.26844947 286.76924427 391.13897705 291.48895264 C389.07576802 300.11088057 387.01430847 308.73322687 384.95266724 317.35552979 C383.80510673 322.15484339 382.65743979 326.95413154 381.50976562 331.75341797 C381.2835339 332.69946522 381.05730217 333.64551247 380.82421494 334.62022781 C378.8113392 343.03751109 376.79824375 351.45474181 374.78511047 359.8719635 C373.00386535 367.31962647 371.2227055 374.76730982 369.44155884 382.21499634 C368.54329185 385.97100485 367.64499395 389.72700597 366.74667358 393.48300171 C360.60227519 419.17381589 354.46298708 444.86584633 348.32833862 470.55899048 C345.43635947 482.67057395 342.54280239 494.78177671 339.64550781 506.89208984 C338.79649005 510.44118463 337.94748953 513.99028355 337.09850693 517.53938675 C336.5396353 519.87567593 335.9807289 522.21195679 335.42178726 524.54822922 C332.07303568 538.54712543 328.73773873 552.54909119 325.42311096 566.55610657 C323.8865641 573.04832358 322.34331143 579.53893964 320.79782009 586.02903271 C319.60563918 591.03768114 318.4219946 596.04823351 317.24544525 601.06057549 C316.52934188 604.10146684 315.80455469 607.14023953 315.07733536 610.17848969 C314.75233356 611.54382726 314.43076375 612.90998835 314.11333847 614.27710724 C312.40888425 621.60998289 310.36169475 628.7117197 307.74780273 635.76635742 C307.50365977 636.4287143 307.25951681 637.09107119 307.00797558 637.77349949 C304.06962435 645.43991313 300.33709396 651.06581077 293.09423828 655.09863281 C281.69679484 659.89973317 269.48561922 659.47316699 257.34814453 659.46191406 C255.58039756 659.4658117 253.8126515 659.47014852 252.04490662 659.47489929 C248.35778758 659.48231734 244.67076438 659.48210217 240.98364258 659.47680664 C236.292597 659.47101247 231.60194631 659.48796343 226.91096592 659.51115131 C223.26549543 659.52598389 219.62011805 659.52674758 215.97462273 659.52364159 C214.2465124 659.52414984 212.51839616 659.52929279 210.79031563 659.53945351 C183.09304813 659.68238159 183.09304813 659.68238159 172.78173828 650.16113281 C163.12674632 639.53068806 159.26626768 624.18571327 155.22705078 610.72363281 C154.80919174 609.34868756 154.39074075 607.97392209 153.97175598 606.59931946 C152.84497424 602.89685338 151.72622287 599.19200597 150.60892868 595.48666763 C149.41045711 591.51753422 148.20420868 587.55076491 146.9987793 583.58374023 C144.95821539 576.86509802 142.92196533 570.14516229 140.88867188 563.42431641 C137.84716125 553.3717745 134.79432511 543.32269443 131.73876953 533.27441406 C130.73595759 529.97625066 129.73320159 526.67807026 128.73046875 523.37988281 C128.48246773 522.56418131 128.23446671 521.7484798 127.9789505 520.90806007 C125.45239177 512.59723119 122.92907255 504.28541952 120.40583038 495.97358322 C114.91996378 477.90282835 109.4241779 459.8351079 103.92347717 441.76886368 C96.26354515 416.61053937 88.61286321 391.44941634 80.96923828 366.28613281 C80.71961208 365.46435799 80.46998589 364.64258316 80.21279526 363.79590607 C76.14689403 350.41082581 72.08148326 337.02559659 68.01612854 323.64035034 C64.20906215 311.10554119 60.4018232 298.57078447 56.59423828 286.03613281 C56.34437038 285.21355232 56.09450249 284.39097183 55.83706284 283.54346466 C48.4464955 259.2134745 41.04789852 234.88594089 33.64223099 210.56054306 C28.33581427 193.1304322 23.03220992 175.69947142 17.73486328 158.26660156 C17.47928902 157.42556633 17.22371475 156.5845311 16.96039581 155.71800995 C14.13401625 146.41679941 11.3088464 137.11522313 8.48583984 127.81298828 C7.49079521 124.53448318 6.49566899 121.25600286 5.50048828 117.97753906 C5.25741692 117.17673164 5.01434555 116.37592422 4.76390839 115.55084991 C1.6022088 105.1360082 -1.57215028 94.72513939 -4.76053619 84.31843758 C-6.13420993 79.83265244 -7.50423525 75.34575131 -8.87487793 70.85903931 C-9.58976683 68.52296003 -10.30656597 66.18746426 -11.0255127 63.85263062 C-24.51226408 20.05141753 -24.51226408 20.05141753 -19.87451172 8.94238281 C-17.59190127 5.10931999 -14.85138721 2.14460952 -10.54049683 0.53448486 C-7.03608788 -0.02892849 -3.53984035 0.00509181 0 0 Z " fill="#242E3D" transform="translate(1104.21826171875,351.8388671875)"/>
<path d="M0 0 C1.10384033 0.6295459 2.20768066 1.2590918 3.3449707 1.90771484 C5.53941193 3.15970976 7.73162496 4.41561975 9.92138672 5.67578125 C13.62311024 7.80538909 17.33946462 9.90794315 21.0625 12 C21.68044434 12.34804687 22.29838867 12.69609375 22.93505859 13.0546875 C31.20069423 17.69920771 39.53044705 22.22641828 47.8671875 26.74169922 C50.83274083 28.35205245 53.79146106 29.9744605 56.75 31.59765625 C88.46167719 48.89131642 120.89918793 65.0640725 153.79980469 79.96972656 C156.95405775 81.41112706 160.09164518 82.88423697 163.2265625 84.3671875 C251.17403786 125.89539687 343.1977155 159.99688224 552.53564453 220.79406738 C555.51804602 221.53468775 558.49698521 222.28865884 561.47598267 223.04283142 C650.16359914 245.45623074 740.65858882 261.12877392 989.875 285.375 C990.92993652 285.42720703 991.98487305 285.47941406 993.07177734 285.53320312 C1059.48358026 288.80283147 1126.47566556 288.9785027 1192.875 285.375 C1194.08710144 285.30947937 1195.29920288 285.24395874 1196.54803467 285.17645264 C1303.0419698 279.34662368 1409.09490588 266.23606359 1593.875 227.375 C1594.9582959 227.11481079 1596.0415918 226.85462158 1597.15771484 226.58654785 C1632.6463237 218.04313655 1667.84684913 208.64221272 1702.875 198.375 C1703.83539185 198.09376282 1704.79578369 197.81252563 1705.78527832 197.52276611 C1778.88021516 176.08437737 1850.98278608 151.02948195 1921.18408203 121.42822266 C1922.09920563 121.0440921 1923.01432922 120.65996155 1923.95718384 120.26419067 C1925.64173044 119.55630868 1927.32451879 118.84421817 1929.00497437 118.12667847 C1937.28536379 114.64843046 1945.31471533 111.80374536 1954.375 111.9375 C1955.108396 111.94507324 1955.84179199 111.95264648 1956.59741211 111.96044922 C1967.42367205 112.28797436 1975.65246427 117.00739384 1983.125 124.6875 C1988.73969874 133.31007306 1990.52123149 141.38873651 1988.40234375 151.66796875 C1983.03485403 167.7704379 1968.11702511 176.83684339 1954.87695312 185.98095703 C1952.11536394 187.90396608 1949.40084274 189.88447397 1946.6875 191.875 C1936.40625 199.375 1936.40625 199.375 1933.875 199.375 C1933.875 200.035 1933.875 200.695 1933.875 201.375 C1933.39933594 201.61992188 1932.92367187 201.86484375 1932.43359375 202.1171875 C1927.47281749 204.76658918 1922.77894843 207.72347296 1918.125 210.875 C1869.14488267 243.93532715 1815.98341041 272.39851336 1762.20996094 296.85009766 C1758.96674736 298.33304876 1755.73565551 299.83939092 1752.5078125 301.35546875 C1697.27690134 327.25016872 1639.89139796 348.63387586 1581.875 367.375 C1581.10947815 367.62294312 1580.3439563 367.87088623 1579.55523682 368.12634277 C1567.69011826 371.96803009 1555.79967499 375.72226685 1543.875 379.375 C1543.19419373 379.58386841 1542.51338745 379.79273682 1541.81195068 380.00793457 C1457.69118243 405.73704297 1369.61391273 424.42437171 1276.20776367 436.02124023 C1273.72697085 436.32966909 1273.72697085 436.32966909 1270.875 437.375 C1268.92089772 437.55068859 1266.96280385 437.68295793 1265.00390625 437.79296875 C1259.01040095 438.18753033 1253.05828682 438.75351861 1247.08984375 439.42578125 C1245.76082283 439.57473595 1245.76082283 439.57473595 1244.404953 439.72669983 C1242.5254222 439.93737796 1240.64590078 440.14813992 1238.76638794 440.35897827 C1211.51891497 443.38935285 1184.23286853 445.62222995 1156.875 447.375 C1155.93096313 447.43665344 1154.98692627 447.49830688 1154.01428223 447.56182861 C1095.02750975 451.37663817 1034.77829013 451.28773413 975.78924561 447.55859375 C972.66336429 447.36166722 969.5370442 447.1728842 966.41064453 446.984375 C862.91229742 440.6601933 759.93408443 425.61132625 659.40643311 400.0189209 C656.84862287 399.36829045 654.28986297 398.72150163 651.73095703 398.07519531 C564.53841056 376.00356859 479.40018358 346.56207161 353.1015625 289.87158203 C350.8106983 288.80900655 348.51661404 287.76310904 346.2109375 286.73388672 C345.02757812 286.20166504 343.84421875 285.66944336 342.625 285.12109375 C341.54734375 284.64212646 340.4696875 284.16315918 339.359375 283.66967773 C336.875 282.375 336.875 282.375 335.875 280.375 C334.06938242 279.63419875 334.06938242 279.63419875 331.88671875 279.046875 C326.81344926 277.44700578 322.34313092 275.17119915 317.6875 272.625 C316.01235153 271.72538323 314.33656552 270.82695262 312.66015625 269.9296875 C311.84562988 269.49237305 311.03110352 269.05505859 310.19189453 268.60449219 C307.03045777 266.92683196 303.83420221 265.33452077 300.625 263.75 C295.57562602 261.24021671 290.55445305 258.68428418 285.5625 256.0625 C284.90926758 255.72460449 284.25603516 255.38670898 283.58300781 255.03857422 C278.99110144 252.60720288 278.99110144 252.60720288 277.875 250.375 C275.88325325 249.68406633 273.88163193 249.02143076 271.875 248.375 C269.98028006 247.43827136 268.10943687 246.45211547 266.26171875 245.42578125 C265.19083008 244.8323291 264.11994141 244.23887695 263.01660156 243.62744141 C261.30682129 242.66717041 261.30682129 242.66717041 259.5625 241.6875 C258.97351929 241.35852722 258.38453857 241.02955444 257.77770996 240.69061279 C244.97217032 233.53635024 232.40595281 225.99901012 219.875 218.375 C217.57062015 216.97555708 215.26557663 215.57728369 212.95800781 214.18310547 C211.7029222 213.42473329 210.4495061 212.66358706 209.19824219 211.89892578 C206.76080987 210.42433041 204.59240712 209.28080237 201.875 208.375 C201.875 207.715 201.875 207.055 201.875 206.375 C201.14442383 206.10075195 200.41384766 205.82650391 199.66113281 205.54394531 C197.01668932 204.43444694 194.72935748 203.18313245 192.296875 201.671875 C190.95109375 200.8360791 190.95109375 200.8360791 189.578125 199.98339844 C188.60359375 199.37012695 187.6290625 198.75685547 186.625 198.125 C185.59375 197.47821289 184.5625 196.83142578 183.5 196.16503906 C174.20009789 190.28983682 165.02547623 184.22967859 155.875 178.125 C154.85666077 177.44576477 154.85666077 177.44576477 153.81774902 176.75280762 C147.67140857 172.64843085 141.53555889 168.53054231 135.45703125 164.32617188 C134.73201416 163.82490784 134.00699707 163.3236438 133.26000977 162.80718994 C131.87202838 161.84564183 130.48570142 160.88169962 129.10131836 159.91497803 C126.10898932 157.83987963 123.21437699 155.86549213 119.875 154.375 C119.875 153.715 119.875 153.055 119.875 152.375 C119.33617187 152.1275 118.79734375 151.88 118.2421875 151.625 C115.32488376 150.08450958 112.70537756 148.26404169 110 146.375 C109.44207764 145.98634766 108.88415527 145.59769531 108.30932617 145.19726562 C103.29813366 141.69645753 98.32573237 138.14079871 93.36962891 134.5625 C90.23263359 132.29120771 90.23263359 132.29120771 86.875 130.375 C86.875 129.715 86.875 129.055 86.875 128.375 C86.19050781 128.15585938 85.50601563 127.93671875 84.80078125 127.7109375 C81.04261482 125.99492559 78.22237462 123.63024246 75.0625 121 C69.56154521 116.50964899 63.99722974 112.13074135 58.3125 107.875 C57.65854248 107.38338379 57.00458496 106.89176758 56.33081055 106.38525391 C53.44630844 104.23162101 50.55321913 102.16173983 47.55078125 100.171875 C44.58884074 98.18283466 42.39900036 95.89900036 39.875 93.375 C37.48649824 91.3947149 35.05685033 89.47260405 32.62109375 87.55078125 C29.82511001 85.33547123 27.06645412 83.0797806 24.3125 80.8125 C20.97511241 78.07208174 17.61222022 75.38032636 14.1875 72.75 C9.09377269 68.81229591 4.3000522 64.58106755 -0.4609375 60.25 C-4.65731338 56.43751971 -8.88398554 52.72899747 -13.3125 49.1875 C-18.7551636 44.79299558 -23.84034914 40.06390592 -28.91088867 35.24731445 C-31.5121656 32.78197947 -34.06973817 30.41811979 -36.8984375 28.2109375 C-39.12342783 26.37629635 -40.41217708 24.7774516 -41.875 22.3125 C-42.28234375 21.64089844 -42.6896875 20.96929688 -43.109375 20.27734375 C-46.10567036 14.66505207 -46.2881976 7.26400401 -44.4765625 1.20703125 C-42.16392977 -3.26998851 -38.50762575 -6.29913283 -34.125 -8.625 C-21.65251607 -12.48902443 -10.51129235 -6.10333104 0 0 Z " fill="#FF9900" transform="translate(430.125,1217.625)"/>
<path d="M0 0 C73.99679581 -1.72990756 152.1018603 11.03840871 207.43212891 63.69140625 C265.57879667 123.35083285 265.50732439 211.13117032 265.66192436 288.78670692 C265.67629357 295.96944147 265.69726373 303.15214388 265.7203529 310.33485522 C265.75798478 322.04411143 265.793008 333.75337337 265.82495117 345.46264648 C265.82685166 346.15859117 265.82875216 346.85453585 265.83071024 347.57156976 C265.85752057 357.43867005 265.88142234 367.30577518 265.90409524 377.17288574 C265.90569254 377.86792085 265.90728984 378.56295596 265.90893555 379.27905273 C265.91052901 379.97320679 265.91212248 380.66736084 265.91376423 381.38254986 C265.94075005 393.05441536 265.97522363 404.72624512 266.0155893 416.39807194 C266.03771822 422.9111223 266.05634231 429.42413794 266.06603813 435.93721962 C264.81269786 496.42296068 264.81269786 496.42296068 277.43212891 555.06640625 C277.69977051 555.79649902 277.96741211 556.5265918 278.24316406 557.27880859 C284.05583556 572.944467 291.28483853 588.01363142 298.87207031 602.88964844 C299.54568604 604.21077637 299.54568604 604.21077637 300.23291016 605.55859375 C300.63292236 606.33315918 301.03293457 607.10772461 301.44506836 607.90576172 C304.37487678 614.31902032 304.44695666 621.31934993 302.61962891 628.06640625 C300.03634125 634.26629664 296.53634009 638.19699147 291.08837891 642.00390625 C290.44380234 642.46498779 289.79922577 642.92606934 289.13511658 643.40112305 C280.53468867 649.4974577 271.74233338 655.32079335 262.94116211 661.12158203 C259.96953297 663.08297052 257.00647309 665.0568812 254.04345703 667.03125 C252.13315732 668.29373711 250.22236758 669.55548315 248.31103516 670.81640625 C247.43693497 671.40075439 246.56283478 671.98510254 245.6622467 672.5871582 C236.80716365 678.38702884 227.68806756 682.40553418 216.93212891 680.44140625 C211.97551518 679.18258372 207.75360548 676.7430655 203.43212891 674.06640625 C203.43212891 673.40640625 203.43212891 672.74640625 203.43212891 672.06640625 C202.83086182 671.79650879 202.22959473 671.52661133 201.61010742 671.24853516 C199.42973733 670.06510819 198.20914644 669.00062297 196.58447266 667.15234375 C196.06731689 666.56469238 195.55016113 665.97704102 195.01733398 665.37158203 C194.47359131 664.73462402 193.92984863 664.09766602 193.36962891 663.44140625 C192.79817139 662.7747998 192.22671387 662.10819336 191.63793945 661.42138672 C174.42328834 640.9910741 162.23533442 616.87287161 150.43212891 593.06640625 C149.91263672 593.73027344 149.39314453 594.39414062 148.85791016 595.078125 C148.16052734 595.96113281 147.46314453 596.84414063 146.74462891 597.75390625 C146.06013672 598.62402344 145.37564453 599.49414062 144.67041016 600.390625 C142.3885794 603.11846805 139.97507203 605.58160969 137.43212891 608.06640625 C136.56974609 608.94039062 135.70736328 609.814375 134.81884766 610.71484375 C129.53046486 616.05679916 124.17152195 621.20842 118.43212891 626.06640625 C117.52462891 626.86304688 116.61712891 627.6596875 115.68212891 628.48046875 C65.17768188 672.54926645 0.61589577 694.36236943 -66.06787109 694.25390625 C-67.11018387 694.25299988 -67.11018387 694.25299988 -68.17355347 694.2520752 C-123.47068108 694.12252378 -176.20983734 679.04073599 -216.56787109 640.06640625 C-217.42896484 639.256875 -218.29005859 638.44734375 -219.17724609 637.61328125 C-253.83270534 604.2493298 -269.7561662 554.48793696 -270.84912109 507.3671875 C-271.90625775 448.02074327 -255.35932063 396.73253733 -213.91357422 353.44384766 C-210.96551302 350.42625672 -207.84079223 347.72285251 -204.56787109 345.06640625 C-203.51554245 344.17867613 -202.46348448 343.2906251 -201.41162109 342.40234375 C-191.71631526 334.32314391 -181.43307445 327.4715672 -170.56787109 321.06640625 C-169.875 320.65793457 -169.18212891 320.24946289 -168.46826172 319.82861328 C-124.0688554 294.10155204 -71.44702273 286.36001857 -20.88037109 286.69140625 C-19.6182782 286.69572662 -18.3561853 286.700047 -17.05584717 286.70449829 C2.6265961 286.78320323 21.90394373 287.5334513 41.43212891 290.06640625 C42.82015535 290.2356687 44.20834485 290.4035985 45.59667969 290.5703125 C63.6208649 292.74767169 81.47330326 295.67191167 99.30712891 299.06640625 C100.58183548 299.30851334 100.58183548 299.30851334 101.8822937 299.55551147 C115.13577758 302.08952853 128.29022059 305.0092159 141.43212891 308.06640625 C141.4791175 299.48443464 141.51432725 290.90251954 141.53575325 282.32044983 C141.54605276 278.33256385 141.55994774 274.34476782 141.58300781 270.35693359 C141.82909224 226.5910545 140.94979995 177.39730887 111.43212891 142.06640625 C110.80306641 141.23367188 110.17400391 140.4009375 109.52587891 139.54296875 C88.06733519 114.16103458 47.9577686 107.33961489 16.83056641 104.60546875 C-51.91024993 99.29134869 -118.73730377 116.23959929 -181.97070312 142.05786133 C-188.28123982 144.5949475 -194.55088162 146.73901769 -201.13818359 148.40625 C-201.8033197 148.57543945 -202.46845581 148.74462891 -203.15374756 148.91894531 C-210.09695001 150.58607531 -214.82462425 150.74283488 -220.94287109 147.00390625 C-227.4089452 139.76806142 -227.01153578 131.74504105 -226.96630859 122.51171875 C-226.96917877 121.21499237 -226.97204895 119.91826599 -226.9750061 118.58224487 C-226.97940796 115.84720032 -226.97307033 113.11245135 -226.95898438 110.37744141 C-226.94192735 106.89882304 -226.95172445 103.42090108 -226.96970177 99.94230843 C-226.98325199 96.5903919 -226.97371685 93.23865495 -226.96630859 89.88671875 C-226.97541763 88.03314255 -226.97541763 88.03314255 -226.98471069 86.14212036 C-226.89776178 75.34147245 -225.37050888 66.00242246 -217.56787109 58.06640625 C-164.86165333 12.71454445 -65.8238601 1.70223331 0 0 Z M-104.56787109 406.06640625 C-105.36580078 406.71996094 -106.16373047 407.37351562 -106.98583984 408.046875 C-126.75197864 424.87107686 -136.82318159 448.59780422 -139.56787109 474.06640625 C-139.85775267 479.63247753 -139.90854036 485.18140831 -139.88037109 490.75390625 C-139.87854828 491.50241852 -139.87672546 492.25093079 -139.87484741 493.02212524 C-139.76144902 520.68800803 -133.60657135 546.15845179 -114.56787109 567.06640625 C-113.69001953 568.04867187 -113.69001953 568.04867187 -112.79443359 569.05078125 C-94.33527329 588.63655697 -66.69770835 595.25205876 -40.75146484 596.28515625 C-4.44664436 597.21101334 35.81376027 589.41515103 67.43212891 571.06640625 C68.42212891 570.50034668 68.42212891 570.50034668 69.43212891 569.92285156 C78.66836351 564.58315343 86.9737518 558.58509056 94.89404297 551.44433594 C96.4172454 550.07973998 97.96406252 548.74729737 99.51806641 547.41796875 C118.71235488 530.75489639 131.57309728 508.69574833 137.68212891 484.12890625 C138.03331787 482.74880371 138.03331787 482.74880371 138.39160156 481.34082031 C143.24919386 460.46884308 143.8540145 439.33299566 143.61962891 418.00390625 C143.60452348 415.56446158 143.59084565 413.12500764 143.57861328 410.68554688 C143.5461441 404.81229155 143.49642904 398.93939512 143.43212891 393.06640625 C139.24473797 391.20993002 134.99683677 390.20940482 130.52978516 389.296875 C129.75237473 389.13553574 128.97496429 388.97419647 128.17399597 388.80796814 C125.61577472 388.28185438 123.05566251 387.76614852 120.49462891 387.25390625 C119.17066101 386.98836945 119.17066101 386.98836945 117.81994629 386.71746826 C98.79495895 382.93188841 79.71300797 380.15654159 60.43212891 378.06640625 C59.24458008 377.93508301 58.05703125 377.80375977 56.83349609 377.66845703 C4.88556687 372.21354193 -62.3196765 369.99710666 -104.56787109 406.06640625 Z " fill="#242E3D" transform="translate(747.56787109375,333.93359375)"/>
<path d="M0 0 C3.10870441 -0.00216853 6.21704245 -0.02033047 9.32568359 -0.03930664 C30.54979391 -0.10219383 51.23389253 1.926823 72.14990234 5.43530273 C73.08023285 5.58936584 74.01056335 5.74342896 74.96908569 5.90216064 C89.74563774 8.35879063 104.33856075 11.14449223 118.77490234 15.18530273 C119.9738916 15.51788086 121.17288086 15.85045898 122.40820312 16.19311523 C183.97610909 33.39556653 183.97610909 33.39556653 199.08349609 57.25170898 C203.48872047 65.49738537 204.08368418 73.62397479 204.07568359 82.80639648 C204.07996872 83.90573013 204.08425385 85.00506378 204.08866882 86.13771057 C204.0943892 88.45312819 204.09492938 90.76856378 204.09057617 93.08398438 C204.08741535 96.60830588 204.11090822 100.13178784 204.13623047 103.65600586 C204.13850374 105.91446835 204.13920683 108.17293308 204.13818359 110.43139648 C204.14739334 111.47541122 204.15660309 112.51942596 204.16609192 113.59507751 C204.1180695 121.26286382 203.17400137 128.34194451 198.46240234 134.62280273 C194.6900965 138.2196525 191.75421326 138.98737164 186.64990234 139.49780273 C176.11735434 138.6484037 166.73952375 134.67866752 157.19680786 130.43237305 C126.26177117 116.72663147 94.34154189 108.42954355 60.77490234 104.18530273 C59.38295654 104.00741211 59.38295654 104.00741211 57.96289062 103.82592773 C31.01306247 100.56926805 1.65564554 100.12498686 -25.22509766 104.18530273 C-26.09473145 104.3088916 -26.96436523 104.43248047 -27.86035156 104.55981445 C-51.38207731 107.99379494 -76.29734813 114.79040911 -94.22509766 131.18530273 C-95.17255859 132.01288086 -95.17255859 132.01288086 -96.13916016 132.85717773 C-109.47147844 145.19104047 -115.61931875 163.49882794 -116.54541016 181.24780273 C-117.19383942 201.71268006 -112.36861632 219.8721613 -98.66259766 235.66186523 C-90.88736786 243.71122172 -81.88493314 249.63367314 -72.22509766 255.18530273 C-71.16548828 255.80920898 -70.10587891 256.43311523 -69.01416016 257.07592773 C-33.24315843 277.21246418 8.72543949 287.09423728 47.61364746 299.34439087 C58.00304762 302.61738273 68.39037317 305.89688898 78.77490234 309.18530273 C79.71990601 309.48414368 80.66490967 309.78298462 81.6385498 310.09088135 C125.32058027 323.92073241 171.72922849 341.77860783 201.77490234 378.18530273 C202.38849609 378.89944336 203.00208984 379.61358398 203.63427734 380.34936523 C222.44006531 402.84108764 233.25169262 429.67538799 238.77490234 458.18530273 C239.02369141 459.46276367 239.27248047 460.74022461 239.52880859 462.05639648 C246.96812637 509.55357922 235.35170098 560.53272484 207.46240234 599.53686523 C200.55194901 609.00438263 192.78877883 617.65440196 184.77490234 626.18530273 C184.19353516 626.82081055 183.61216797 627.45631836 183.01318359 628.11108398 C177.7128849 633.705102 171.48174016 638.26274237 165.37939453 642.93676758 C163.88518203 644.09948863 162.42601817 645.30686799 160.97021484 646.51733398 C158.77490234 648.18530273 158.77490234 648.18530273 156.77490234 648.18530273 C156.77490234 648.84530273 156.77490234 649.50530273 156.77490234 650.18530273 C156.28763672 650.45342773 155.80037109 650.72155273 155.29833984 650.99780273 C151.7216717 652.97472476 148.15603254 654.96380327 144.62255859 657.01733398 C128.24314694 666.5297758 111.69374597 673.96080168 93.77490234 680.18530273 C92.8588623 680.5038623 91.94282227 680.82242188 90.99902344 681.15063477 C55.03653751 693.40447034 16.58936385 698.42797898 -21.28759766 698.37280273 C-22.45287491 698.37189636 -22.45287491 698.37189636 -23.64169312 698.37097168 C-89.71808549 698.2330971 -181.36577714 689.04632357 -235.22509766 646.18530273 C-236.29630859 645.34612305 -236.29630859 645.34612305 -237.38916016 644.48999023 C-245.74056629 637.13364526 -248.13378794 625.82298394 -249.22509766 615.18530273 C-249.52945831 609.12562501 -249.513421 603.06060652 -249.48583984 596.99487305 C-249.47511922 594.19094214 -249.48578565 591.38765174 -249.49853516 588.58374023 C-249.52031226 562.19997044 -249.52031226 562.19997044 -243.22509766 555.18530273 C-237.05042566 550.61228984 -229.5374402 551.22152164 -222.22509766 552.18530273 C-214.5254138 553.86797808 -207.29029237 557.2933906 -200.08056641 560.38842773 C-135.32073768 588.13367077 -58.75794484 604.11664685 11.77490234 593.18530273 C12.65903809 593.0510791 13.54317383 592.91685547 14.45410156 592.77856445 C46.58234089 587.74965128 80.85072835 577.55292577 101.32275391 550.35668945 C113.89077906 532.68643658 118.26671276 510.45053985 115.27880859 489.09936523 C111.59336647 468.90230952 101.50219218 452.46065116 84.82348633 440.41821289 C54.20295899 419.42816768 16.01325891 410.24113147 -19.0552063 399.58821106 C-31.99154416 395.65539772 -44.91194325 391.67170413 -57.82261276 387.65546131 C-61.30003818 386.57376686 -64.77815961 385.49448451 -68.25848389 384.42214966 C-88.73399858 378.11147252 -108.96128074 371.42968416 -128.41259766 362.37280273 C-129.50282227 361.8663623 -130.59304687 361.35992188 -131.71630859 360.83813477 C-145.44168707 354.33908523 -157.99376498 346.36197314 -170.20947266 337.37670898 C-172.26873407 335.88027679 -174.36806982 334.43786987 -176.49853516 333.04467773 C-179.44467388 331.03556308 -181.02061234 328.97332828 -183.22509766 326.18530273 C-184.43729316 325.10348066 -185.66867679 324.04299068 -186.91259766 322.99780273 C-217.56882284 296.51940566 -236.95834974 252.60840057 -241.04199219 212.8425293 C-244.44829525 163.41025925 -232.23177896 118.40344511 -199.72314453 80.4309082 C-196.6500928 76.92460995 -193.461771 73.54166816 -190.22509766 70.18530273 C-189.50193359 69.41057617 -188.77876953 68.63584961 -188.03369141 67.83764648 C-181.68147956 61.20467389 -174.544682 55.69322588 -167.22509766 50.18530273 C-166.66161621 49.75572266 -166.09813477 49.32614258 -165.51757812 48.88354492 C-156.5991855 42.11463343 -147.21389348 36.53206301 -137.32373047 31.29760742 C-135.47814782 30.31942285 -133.64364674 29.32039022 -131.81103516 28.31811523 C-101.47241259 12.29991305 -67.09033286 4.77680314 -33.22509766 1.18530273 C-32.31405273 1.08741455 -31.40300781 0.98952637 -30.46435547 0.88867188 C-20.32724669 -0.04553554 -10.17109946 -0.00079005 0 0 Z " fill="#242E3D" transform="translate(2282.22509765625,332.814697265625)"/>
<path d="M0 0 C9.90239018 11.19513041 9.0109135 31.42203304 8.87109375 45.50390625 C8.86810272 46.29601501 8.86511169 47.08812378 8.86203003 47.90423584 C8.80010147 62.00524625 7.7135421 75.79934331 5.85205078 89.78222656 C5.49563479 92.69515722 5.24974857 95.60171356 5.0234375 98.52734375 C4.65449385 102.80027053 3.78146019 106.58667767 2.49609375 110.69140625 C1.73002272 113.90848595 1.05006637 117.14247009 0.37109375 120.37890625 C0.09845703 121.64057617 0.09845703 121.64057617 -0.1796875 122.92773438 C-0.35113281 123.74048828 -0.52257813 124.55324219 -0.69921875 125.390625 C-0.9314917 126.48636841 -0.9314917 126.48636841 -1.16845703 127.60424805 C-1.60969567 129.997302 -1.60969567 129.997302 -1.50390625 133.69140625 C-2.16390625 133.69140625 -2.82390625 133.69140625 -3.50390625 133.69140625 C-3.58640625 134.87992188 -3.66890625 136.0684375 -3.75390625 137.29296875 C-4.51677688 144.08728534 -6.55683974 150.5348413 -8.50390625 157.06640625 C-8.70365051 157.74336548 -8.90339478 158.42032471 -9.10919189 159.11779785 C-24.13227009 210.00659569 -44.71140411 258.7660485 -74.25390625 303.00390625 C-74.65230713 303.60123566 -75.05070801 304.19856506 -75.46118164 304.81399536 C-81.17137537 313.36138073 -86.9710992 321.74486783 -93.50390625 329.69140625 C-93.9313916 330.21750488 -94.35887695 330.74360352 -94.79931641 331.28564453 C-99.16120122 336.65156798 -103.5945627 341.81218137 -108.50390625 346.69140625 C-109.83881594 348.15562909 -111.1733891 349.62019677 -112.49853516 351.09326172 C-122.09445335 361.72183709 -132.26713843 372.11191573 -144.50390625 379.69140625 C-145.49390625 380.31015625 -146.48390625 380.92890625 -147.50390625 381.56640625 C-153.00833725 383.63056787 -158.82627666 384.68095861 -164.44140625 382.50390625 C-167.97488222 380.41266537 -169.87547591 378.5659854 -171.19140625 374.640625 C-172.98074022 361.69032039 -164.95582045 347.54827436 -160.14770508 335.75704956 C-115.10163181 228.71752311 -115.10163181 228.71752311 -97.12890625 115.06640625 C-97.11480713 114.01146973 -97.10070801 112.9565332 -97.08618164 111.86962891 C-97.15197681 101.3207474 -98.76077107 88.79818973 -106.29296875 80.7890625 C-123.98551886 64.63350999 -151.72341284 61.58148989 -174.69140625 60.8671875 C-178.50390625 60.69140625 -178.50390625 60.69140625 -181.58691406 60.19311523 C-186.40787491 59.57562118 -191.13299702 59.51051411 -195.98828125 59.48828125 C-197.52823006 59.4776918 -197.52823006 59.4776918 -199.09928894 59.46688843 C-257.98851557 59.15724762 -316.88082155 63.79935163 -375.25219727 71.57397461 C-398.13197436 74.51328599 -398.13197436 74.51328599 -404.81640625 70.87890625 C-407.98897513 68.29658275 -409.28561905 66.53097238 -410.31640625 62.56640625 C-410.66962813 55.26648737 -408.39910395 50.34567253 -403.75390625 44.75390625 C-397.79956826 38.54026644 -390.79791729 34.15459218 -383.50390625 29.69140625 C-382.84890137 29.28422363 -382.19389648 28.87704102 -381.51904297 28.45751953 C-361.88285681 16.29765087 -341.1332685 6.72820879 -319.50390625 -1.30859375 C-318.55918457 -1.66018555 -317.61446289 -2.01177734 -316.64111328 -2.37402344 C-236.00736162 -31.87245525 -142.27931991 -37.51493146 0 0 Z " fill="#FF9900" transform="translate(2606.50390625,1193.30859375)"/>
</svg>
