<?xml version="1.0" encoding="UTF-8"?>
<svg version="1.1" xmlns="http://www.w3.org/2000/svg" width="600" height="600">
<path d="M0 0 C198 0 396 0 600 0 C600 198 600 396 600 600 C402 600 204 600 0 600 C0 402 0 204 0 0 Z " fill="#FFFEFE" transform="translate(0,0)"/>
<path d="M0 0 C1.05806854 0.00515121 1.05806854 0.00515121 2.13751221 0.01040649 C18.23619062 0.10232465 32.78809821 2.05651564 48.22363281 6.68017578 C50.75427594 7.41445239 53.31244406 8.0128761 55.875 8.625 C63.02609259 10.57926805 69.58606359 13.94347797 76.1875 17.25 C76.81736816 17.56098633 77.44723633 17.87197266 78.09619141 18.19238281 C111.15965624 34.6259914 137.37012113 61.53625721 154.1875 94.25 C154.72761719 95.28898437 155.26773437 96.32796875 155.82421875 97.3984375 C167.5204011 121.28198046 171.37572856 145.87534898 171.37280273 172.22827148 C171.37500844 174.44599088 171.3933138 176.66322593 171.41210938 178.88085938 C171.44455366 186.87027884 171.00134127 194.43822788 169.1875 202.25 C168.91401733 203.53765259 168.91401733 203.53765259 168.63500977 204.85131836 C164.98479733 221.83743969 159.28998106 236.92036463 151.1875 252.25 C150.70192627 253.17329102 150.70192627 253.17329102 150.20654297 254.11523438 C142.50311601 268.60566638 132.4603606 280.44570454 121.1875 292.25 C120.26710938 293.24966797 120.26710938 293.24966797 119.328125 294.26953125 C102.53098903 312.02293981 78.89468794 324.05276629 56.1875 332.25 C55.31424072 332.56807617 54.44098145 332.88615234 53.54125977 333.21386719 C27.97903875 342.16412426 -1.17753973 344.32302936 -27.8125 339.25 C-28.62960449 339.09934082 -29.44670898 338.94868164 -30.28857422 338.79345703 C-56.82066656 333.75424738 -81.44488561 322.80125299 -102.8125 306.25 C-104.25689453 305.14011719 -104.25689453 305.14011719 -105.73046875 304.0078125 C-116.35172065 295.58871015 -125.55358446 285.97792701 -133.8125 275.25 C-134.98039062 273.76693359 -134.98039062 273.76693359 -136.171875 272.25390625 C-155.4270967 247.10312509 -168.80914065 213.21401874 -169.015625 181.33203125 C-169.02268463 180.60098679 -169.02974426 179.86994232 -169.03701782 179.116745 C-169.41419077 128.53302981 -154.57157735 85.71083836 -118.8125 49.25 C-118.23137451 48.65203613 -117.65024902 48.05407227 -117.05151367 47.43798828 C-101.18666577 31.29527034 -81.41038389 20.23113924 -60.8125 11.25 C-59.85472656 10.83105469 -58.89695312 10.41210938 -57.91015625 9.98046875 C-39.71405024 2.76526716 -19.43775643 -0.15502294 0 0 Z " fill="#FF6C37" transform="translate(298.8125,56.75)"/>
<path d="M0 0 C6.10858323 2.86541385 10.30430147 6.3622564 13.00634766 12.66503906 C14.17785287 17.1429342 14.22688141 21.33883271 14.23828125 25.94921875 C14.24493805 26.89363831 14.25159485 27.83805786 14.25845337 28.81109619 C14.26855078 30.80470847 14.27327129 32.79835436 14.27294922 34.79199219 C14.27730985 37.81633335 14.31362599 40.83919908 14.3515625 43.86328125 C14.35743405 45.80858881 14.36140118 47.75390324 14.36328125 49.69921875 C14.37765228 50.59122986 14.39202332 51.48324097 14.40682983 52.40228271 C14.35630367 59.47048754 12.98028172 66.5032439 8.25643921 72.00775146 C2.99610521 76.99097296 -2.91618515 79.20089994 -10.09765625 79.46484375 C-17.22156195 79.22446656 -23.68283853 76.76627724 -29.09765625 72.08984375 C-33.24772571 65.48328137 -33.67705312 59.11036307 -33.59375 51.484375 C-33.59520523 50.40153732 -33.59666046 49.31869965 -33.59815979 48.20304871 C-33.59650857 45.92806286 -33.58503511 43.65306494 -33.56420898 41.37817383 C-33.53515358 37.90202393 -33.54363761 34.42739214 -33.55664062 30.95117188 C-33.55040529 28.73306553 -33.54201597 26.51496398 -33.53125 24.296875 C-33.53418564 23.26238724 -33.53712128 22.22789948 -33.54014587 21.1620636 C-33.45740891 14.82488515 -32.88668794 10.11830507 -28.4140625 5.26171875 C-27.83527344 4.7925 -27.25648437 4.32328125 -26.66015625 3.83984375 C-26.08394531 3.3603125 -25.50773437 2.88078125 -24.9140625 2.38671875 C-17.96123987 -2.57744708 -8.04898602 -2.36496058 0 0 Z " fill="#FF7340" transform="translate(143.09765625,462.91015625)"/>
<path d="M0 0 C1.28712891 0.00322266 2.57425781 0.00644531 3.90039062 0.00976562 C5.16818359 -0.00634766 6.43597656 -0.02246094 7.7421875 -0.0390625 C14.33593919 -0.04251292 19.4342956 0.03499325 25.21289062 3.32226562 C26.23962891 3.85207031 26.23962891 3.85207031 27.28710938 4.39257812 C32.33051354 7.68971887 34.75890817 11.48052547 36.21289062 17.32226562 C37.39348903 27.04698859 36.0070674 35.33563329 30.02539062 43.19726562 C22.9157728 48.56897687 16.43268742 49.90732024 7.65039062 49.57226562 C6.73708984 49.55421875 5.82378906 49.53617187 4.8828125 49.51757812 C2.65835548 49.47099264 0.43622096 49.40562048 -1.78710938 49.32226562 C-1.7635437 50.62429932 -1.7635437 50.62429932 -1.73950195 51.95263672 C-1.68841383 55.16924849 -1.65077911 58.38565375 -1.62231445 61.60253906 C-1.6072158 62.99551184 -1.58673493 64.388437 -1.56079102 65.78125 C-1.52445816 67.78169448 -1.50899745 69.78248389 -1.49414062 71.78320312 C-1.47057495 73.58990479 -1.47057495 73.58990479 -1.4465332 75.43310547 C-1.55892334 76.38652832 -1.67131348 77.33995117 -1.78710938 78.32226562 C-5.01084615 80.47142347 -6.05414611 80.70513365 -9.78710938 80.32226562 C-12.22056743 77.88880757 -12.02887004 76.59375616 -12.0581665 73.27258301 C-12.05411804 72.57225952 -12.05006958 71.87193604 -12.04589844 71.15039062 C-12.04940308 70.41203979 -12.05290771 69.67368896 -12.05651855 68.91296387 C-12.06533987 66.46596955 -12.05948542 64.01926302 -12.05273438 61.57226562 C-12.05408091 59.875976 -12.05602135 58.17968674 -12.05853271 56.48339844 C-12.06148452 52.92574393 -12.05718456 49.36818974 -12.04785156 45.81054688 C-12.03645696 41.24375422 -12.04301614 36.67719662 -12.05499649 32.1104126 C-12.0622136 28.60691548 -12.05992786 25.10347436 -12.05474091 21.59997559 C-12.05340399 19.91581189 -12.05505358 18.23164316 -12.05970001 16.54748535 C-12.06476285 14.19623289 -12.0570587 11.84536439 -12.04589844 9.49414062 C-12.0499469 8.79381714 -12.05399536 8.09349365 -12.0581665 7.37194824 C-11.98264489 -1.18950571 -7.21592709 0.04175444 0 0 Z " fill="#FF7341" transform="translate(41.787109375,460.677734375)"/>
<path d="M0 0 C4.02353612 0.27839769 5.94728204 2.84724186 8.51074219 5.68237305 C9.00832031 6.20702148 9.50589844 6.73166992 10.01855469 7.2722168 C11.23838134 8.56241806 12.43904468 9.87069037 13.63574219 11.18237305 C5.50664968 32.19441333 -39.38415031 49.21302365 -58.36425781 59.18237305 C-58.03425781 65.12237305 -57.70425781 71.06237305 -57.36425781 77.18237305 C-60.89558855 75.41670768 -62.57768424 74.20743974 -65.25488281 71.48706055 C-65.96386719 70.77163086 -66.67285156 70.05620117 -67.40332031 69.3190918 C-68.13292969 68.57272461 -68.86253906 67.82635742 -69.61425781 67.05737305 C-70.35933594 66.30327148 -71.10441406 65.54916992 -71.87207031 64.7722168 C-73.70739202 62.91336533 -75.53787691 61.050003 -77.36425781 59.18237305 C-69.73231435 50.06128921 -61.42943018 41.55164712 -53.13244438 33.03943348 C-50.41516382 30.25010416 -47.71530457 27.44772774 -45.05126953 24.60742188 C-23.24233707 1.39353855 -23.24233707 1.39353855 -7.45068359 0.22021484 C-3.72540492 0.15598669 -3.72540492 0.15598669 0 0 Z " fill="#FFFCFB" transform="translate(293.3642578125,246.817626953125)"/>
<path d="M0 0 C4.42062755 0.57975443 5.48900763 1.8249647 8.21801758 5.20019531 C11.35675706 9.72736204 13.67397551 14.6739128 16.0625 19.625 C16.59101563 20.69621094 17.11953125 21.76742188 17.6640625 22.87109375 C19.86932974 27.3655851 22.00055174 31.83058607 23.8125 36.5 C27.18858996 33.45443955 29.0946423 30.43265593 31.125 26.37890625 C31.42059814 25.7971312 31.71619629 25.21535614 32.02075195 24.61595154 C32.95875764 22.76844011 33.88655412 20.91608145 34.8125 19.0625 C35.73912782 17.21286778 36.66811561 15.36460167 37.60424805 13.51976013 C38.45441783 11.84376533 39.29582124 10.16333214 40.13671875 8.48266602 C41.81278139 5.49949916 43.45599324 2.98360118 45.8125 0.5 C49.5 0.125 49.5 0.125 52.8125 0.5 C54.48037897 2.16787897 53.94424169 4.19721502 53.95913696 6.42526245 C53.95868378 7.12918121 53.95823059 7.83309998 53.95776367 8.55834961 C53.96112228 9.29655441 53.9644809 10.03475922 53.96794128 10.79533386 C53.97747882 13.24768738 53.97939579 15.69997282 53.98046875 18.15234375 C53.98367939 19.85006235 53.98704331 21.54778066 53.99055481 23.24549866 C53.9965531 26.80909873 53.99839399 30.37267453 53.99780273 33.9362793 C53.99770107 38.51093044 54.0113542 43.0854265 54.02857494 47.66004086 C54.03967344 51.1678184 54.04172261 54.67555821 54.04119301 58.18335152 C54.04237634 59.87031145 54.04681778 61.55727227 54.05452538 63.24421501 C54.06428209 65.60034025 54.06146453 67.95612558 54.05541992 70.31225586 C54.06103943 71.01415039 54.06665894 71.71604492 54.07244873 72.43920898 C54.04081577 77.27168423 54.04081577 77.27168423 51.8125 79.5 C49.3125 79.75 49.3125 79.75 46.8125 79.5 C44.20693832 76.89443832 44.54250629 75.76380117 44.49365234 72.13232422 C44.47378265 71.01131317 44.45391296 69.89030212 44.43344116 68.73532104 C44.42188995 67.52071198 44.41033875 66.30610291 44.3984375 65.0546875 C44.37907135 63.81453888 44.3597052 62.57439026 44.3397522 61.29666138 C44.2900119 57.99888221 44.24877523 54.70113861 44.21160889 51.40319824 C44.17160998 48.03822666 44.12049897 44.67342608 44.0703125 41.30859375 C43.97410213 34.70583893 43.88909617 28.10300989 43.8125 21.5 C43.3685791 22.36802246 42.9246582 23.23604492 42.46728516 24.13037109 C40.81994842 27.34899801 39.16757851 30.56501825 37.51367188 33.78027344 C36.79842681 35.17247005 36.0845504 36.56537071 35.37207031 37.95898438 C34.34799081 39.96150196 33.31902303 41.96143971 32.2890625 43.9609375 C31.97127838 44.58495453 31.65349426 45.20897156 31.32608032 45.85189819 C30.0032873 48.40991938 28.86276902 50.44973098 26.8125 52.5 C24.43676758 52.55493164 24.43676758 52.55493164 21.8125 51.5 C20.2221478 49.18892711 19.02926255 47.12254374 17.82421875 44.62109375 C17.47615677 43.9344313 17.12809479 43.24776886 16.76948547 42.54029846 C15.66273959 40.34738768 14.5812874 38.14305735 13.5 35.9375 C12.75358686 34.44774804 12.00555844 32.9588042 11.25585938 31.47070312 C9.42253844 27.82291123 7.61180233 24.16468341 5.8125 20.5 C5.80441315 21.20965912 5.79632629 21.91931824 5.78799438 22.65048218 C5.71012497 29.33114337 5.62285789 36.0116075 5.52497292 42.69200706 C5.47497962 46.12666136 5.42865022 49.56128445 5.390625 52.99609375 C5.3467726 56.94288688 5.28710852 60.88936366 5.2265625 64.8359375 C5.20923569 66.69066177 5.20923569 66.69066177 5.19155884 68.58285522 C5.17168915 69.72388702 5.15181946 70.86491882 5.13134766 72.04052734 C5.11802399 73.048685 5.10470032 74.05684265 5.0909729 75.09555054 C4.8125 77.5 4.8125 77.5 2.8125 79.5 C0.3125 79.75 0.3125 79.75 -2.1875 79.5 C-4.62489862 77.06260138 -4.42567697 75.76521757 -4.44744873 72.43920898 C-4.44182922 71.73731445 -4.43620972 71.03541992 -4.43041992 70.31225586 C-4.43231827 69.57229874 -4.43421661 68.83234161 -4.43617249 68.06996155 C-4.43988461 65.61814868 -4.42917089 63.1666304 -4.41796875 60.71484375 C-4.41677719 59.01615941 -4.41632374 57.31747441 -4.4165802 55.61878967 C-4.41501464 52.05693443 -4.40671875 48.4951796 -4.39331055 44.93334961 C-4.37630769 40.35754413 -4.37249652 35.78184896 -4.37325573 31.20601559 C-4.37298441 27.69827716 -4.36750955 24.19056307 -4.36025429 20.68283272 C-4.35706244 18.99505358 -4.35509902 17.30727167 -4.35436058 15.61948967 C-4.35220318 13.26572806 -4.34347247 10.91208577 -4.33276367 8.55834961 C-4.33321686 7.85443085 -4.33367004 7.15051208 -4.33413696 6.42526245 C-4.29568666 0.6738332 -4.29568666 0.6738332 0 0 Z " fill="#FF703D" transform="translate(349.1875,461.5)"/>
<path d="M0 0 C7.55042826 -0.37133254 7.55042826 -0.37133254 9.53613281 1.26879883 C11.14774495 3.17472639 11.74785799 4.61286105 12.46484375 6.9921875 C12.70517334 7.77239258 12.94550293 8.55259766 13.19311523 9.35644531 C13.43876221 10.18756836 13.68440918 11.01869141 13.9375 11.875 C14.20054932 12.73706055 14.46359863 13.59912109 14.73461914 14.48730469 C15.26058342 16.21333151 15.78271712 17.94053084 16.30078125 19.66894531 C17.16056928 22.53530569 18.04883332 25.39247696 18.9375 28.25 C20.18341843 32.31617729 21.42177374 36.38464778 22.66015625 40.453125 C22.96050781 41.43958008 23.26085937 42.42603516 23.5703125 43.44238281 C24.18759933 45.47255619 24.80349646 47.50315266 25.41796875 49.53417969 C26.69272934 53.74227523 27.96872612 57.94716124 29.33984375 62.125 C31.1246504 67.61280407 32.53841609 72.212027 32 78 C29.29120665 79.35439668 26.99066732 79.06501451 24 79 C23.16320723 76.37605694 22.33043058 73.75095616 21.5 71.125 C21.26152344 70.37863281 21.02304687 69.63226562 20.77734375 68.86328125 C19 63.2265625 19 63.2265625 19 61 C9.43 61 -0.14 61 -10 61 C-11.2753379 66.5487742 -11.2753379 66.5487742 -12.54272461 72.09936523 C-13.88888889 77.88888889 -13.88888889 77.88888889 -15 79 C-17.9375 79.1875 -17.9375 79.1875 -21 79 C-23 77 -23 77 -23.07104492 75.12597656 C-22.3980517 69.71603285 -21.1682129 64.86657466 -19.3125 59.75 C-16.96616359 53.01220482 -14.86227506 46.24508196 -12.9375 39.375 C-9.17725351 26.02308271 -5.18353253 12.88162976 0 0 Z " fill="#FF7240" transform="translate(458,462)"/>
<path d="M0 0 C5.56818182 0.56818182 5.56818182 0.56818182 7 2 C7.10556617 4.36222218 7.14678498 6.69535384 7.14526367 9.05834961 C7.14862228 9.79655441 7.1519809 10.53475922 7.15544128 11.29533386 C7.16497882 13.74768738 7.16689579 16.19997282 7.16796875 18.65234375 C7.17117939 20.35006235 7.17454331 22.04778066 7.17805481 23.74549866 C7.1840531 27.30909873 7.18589399 30.87267453 7.18530273 34.4362793 C7.18520107 39.01093044 7.1988542 43.5854265 7.21607494 48.16004086 C7.22717344 51.6678184 7.22922261 55.17555821 7.22869301 58.68335152 C7.22987634 60.37031145 7.23431778 62.05727227 7.24202538 63.74421501 C7.25178209 66.10034025 7.24896453 68.45612558 7.24291992 70.81225586 C7.24853943 71.51415039 7.25415894 72.21604492 7.25994873 72.93920898 C7.22831577 77.77168423 7.22831577 77.77168423 5 80 C2.1875 80.625 2.1875 80.625 -1 80 C-5.58940635 74.57212876 -8.51466906 67.31047337 -11.703125 61.0078125 C-12.22638367 59.98066132 -12.74964233 58.95351013 -13.28875732 57.89523315 C-14.94594379 54.64022462 -16.5980375 51.38266235 -18.25 48.125 C-19.3746654 45.91389228 -20.49966211 43.70295304 -21.625 41.4921875 C-29.0601955 26.879609 -29.0601955 26.879609 -31 23 C-31.33 41.48 -31.66 59.96 -32 79 C-35.465 79.495 -35.465 79.495 -39 80 C-41.43739862 77.56260138 -41.23817697 76.26521757 -41.25994873 72.93920898 C-41.25432922 72.23731445 -41.24870972 71.53541992 -41.24291992 70.81225586 C-41.24481827 70.07229874 -41.24671661 69.33234161 -41.24867249 68.56996155 C-41.25238461 66.11814868 -41.24167089 63.6666304 -41.23046875 61.21484375 C-41.22927719 59.51615941 -41.22882374 57.81747441 -41.2290802 56.11878967 C-41.22751464 52.55693443 -41.21921875 48.9951796 -41.20581055 45.43334961 C-41.18880769 40.85754413 -41.18499652 36.28184896 -41.18575573 31.70601559 C-41.18548441 28.19827716 -41.18000955 24.69056307 -41.17275429 21.18283272 C-41.16956244 19.49505358 -41.16759902 17.80727167 -41.16686058 16.11948967 C-41.16470318 13.76572806 -41.15597247 11.41208577 -41.14526367 9.05834961 C-41.14571686 8.35443085 -41.14617004 7.65051208 -41.14663696 6.92526245 C-41.11447518 2.11447518 -41.11447518 2.11447518 -40 1 C-36.6875 0.625 -36.6875 0.625 -33 1 C-29.85495337 4.33082998 -27.7946609 8.00028467 -25.71484375 12.05859375 C-25.41365128 12.6430275 -25.1124588 13.22746124 -24.80213928 13.8296051 C-23.84198251 15.69624971 -22.88974189 17.5668078 -21.9375 19.4375 C-21.32666029 20.62590221 -20.71533467 21.8140548 -20.10351562 23.00195312 C-14.30640101 34.28605799 -8.66060749 45.64702283 -3 57 C-2.99191315 56.31539703 -2.98382629 55.63079407 -2.97549438 54.92544556 C-2.88964993 47.82054594 -2.79015585 40.71593183 -2.68261719 33.61132812 C-2.64425819 30.95740542 -2.60941774 28.30342949 -2.578125 25.64941406 C-2.53262464 21.8416029 -2.47460551 18.03416042 -2.4140625 14.2265625 C-2.40251129 13.03382721 -2.39096008 11.84109192 -2.37905884 10.61221313 C-2.35918915 9.51122284 -2.33931946 8.41023254 -2.31884766 7.27587891 C-2.30552399 6.30325104 -2.29220032 5.33062317 -2.2784729 4.32852173 C-2 2 -2 2 0 0 Z " fill="#FF703D" transform="translate(563,461)"/>
<path d="M0 0 C3.54500022 1.95876283 6.18254853 4.36509707 8 8 C8.11968512 9.47359245 8.17974552 10.95225939 8.20874023 12.43041992 C8.23767616 13.80776558 8.23767616 13.80776558 8.26719666 15.2129364 C8.32497073 19.42422584 8.37423789 23.6353435 8.4050293 27.84692383 C8.42659096 30.06518133 8.46067175 32.28335417 8.50756836 34.5012207 C8.57465555 37.70302246 8.60204553 40.90306271 8.62109375 44.10546875 C8.64892441 45.09113327 8.67675507 46.07679779 8.70542908 47.09233093 C8.68759965 53.09430984 7.77084578 56.37787636 3.58363342 60.75410461 C-0.36385872 63.85972374 -5.32892143 63.38620347 -10.109375 63.3515625 C-13 63 -13 63 -16.125 60.75 C-18.7859979 56.84720307 -20.24453162 54.18603193 -20.29052734 49.41845703 C-20.30328705 48.51717072 -20.31604675 47.6158844 -20.32919312 46.68728638 C-20.33141876 45.72056 -20.33364441 44.75383362 -20.3359375 43.7578125 C-20.3425943 42.75668427 -20.3492511 41.75555603 -20.35610962 40.72409058 C-20.36622817 38.60758296 -20.37092689 36.4910435 -20.37060547 34.37451172 C-20.37497475 31.14366823 -20.4112928 27.91419527 -20.44921875 24.68359375 C-20.4550879 22.62500466 -20.45905663 20.5664091 -20.4609375 18.5078125 C-20.47530853 17.54513458 -20.48967957 16.58245667 -20.50448608 15.59060669 C-20.4648372 9.74249415 -19.85288036 6.47649135 -16 2 C-11.40992184 -1.26912399 -5.35434964 -0.82482149 0 0 Z " fill="#FFFDFC" transform="translate(139,470)"/>
<path d="M0 0 C2.625 1.625 2.625 1.625 3.625 3.625 C2.43700302 4.16269012 1.24900604 4.70038025 0.02500916 5.25436401 C-4.31076487 7.43024767 -7.40773519 10.10648347 -10.77514648 13.55517578 C-11.35992264 14.13776154 -11.94469879 14.72034729 -12.54719543 15.32058716 C-14.4565944 17.22769483 -16.351393 19.14861096 -18.24609375 21.0703125 C-19.57667417 22.40582151 -20.90807271 23.74051588 -22.24024963 25.07443237 C-25.01905448 27.86085064 -27.79129237 30.65357621 -30.55834961 33.45166016 C-34.10968312 37.04274016 -37.67185928 40.62280967 -41.2382803 44.19890022 C-44.64026951 47.61084237 -48.03727205 51.02773011 -51.43359375 54.4453125 C-52.08317991 55.09829441 -52.73276608 55.75127632 -53.40203667 56.42404556 C-55.23098312 58.26453147 -57.0563897 60.10844951 -58.88061523 61.95361328 C-59.69793625 62.77496765 -59.69793625 62.77496765 -60.5317688 63.61291504 C-63.29323181 66.36369747 -63.29323181 66.36369747 -65.375 69.625 C-69.82426052 69.21185438 -72.21600104 66.12038473 -75.125 63.0625 C-75.63160156 62.54236328 -76.13820313 62.02222656 -76.66015625 61.48632812 C-77.90534405 60.20589916 -79.14111502 58.91632446 -80.375 57.625 C-78.70938414 53.29229039 -75.50053208 50.48976001 -72.25 47.3125 C-71.66395996 46.73290527 -71.07791992 46.15331055 -70.47412109 45.55615234 C-66.80303044 41.94983969 -63.04634754 38.4857792 -59.12109375 35.15625 C-57.341369 33.59550705 -55.7066798 31.95220968 -54.0625 30.25 C-50.39479313 26.52420728 -46.3975675 23.28187287 -42.3203125 20.015625 C-40.34862591 18.415264 -38.40554988 16.77902998 -36.4921875 15.109375 C-13.01321362 -5.30167962 -13.01321362 -5.30167962 0 0 Z " fill="#FFFCFA" transform="translate(352.375,161.375)"/>
<path d="M0 0 C1.36374174 0.95811599 2.70692727 1.94845794 4 3 C3.125 7.875 3.125 7.875 2 9 C-1.10063285 9.21140678 -3.39424724 9.26273614 -6.26953125 8.015625 C-11.97802521 5.89229391 -19.50706735 5.69394692 -25.24609375 7.83984375 C-27.52635798 9.46391684 -28.81428469 11.1990018 -29.44921875 13.9375 C-29.69871935 18.4801316 -28.74603484 21.30113842 -26 25 C-23.43205466 26.74365831 -23.43205466 26.74365831 -20.4375 28.0625 C-18.83648437 28.82433594 -18.83648437 28.82433594 -17.203125 29.6015625 C-14.3903 30.82960073 -11.57450768 31.90136534 -8.6875 32.9375 C-2.35827067 35.41017319 2.16670901 39.4900648 4.9375 45.75 C7.29056783 53.35335043 6.87930232 60.97147098 3.2578125 68.0625 C0.1818565 72.80061856 -4.20940518 75.73238109 -9.546875 77.484375 C-19.20111283 79.5136097 -26.93519932 78.33242364 -35.57421875 73.703125 C-38.01784756 71.98746935 -39.45970548 70.54351267 -41 68 C-41.3125 65.375 -41.3125 65.375 -41 63 C-40.01 62.01 -40.01 62.01 -39 61 C-34.0335454 61.13795707 -31.54274129 63.85089663 -28 67 C-25.01294343 68.49352829 -21.9618749 68.26567862 -18.6875 68.3125 C-17.37136719 68.34988281 -16.05523437 68.38726563 -14.69921875 68.42578125 C-10.48889038 67.94117112 -8.94243615 66.97525142 -6 64 C-3.74940465 60.03466534 -3.52595135 56.50346218 -4 52 C-7.77399627 44.59716117 -13.91933187 41.83165461 -21.4375 39.125 C-29.32392404 36.12197419 -35.2104162 32.77574543 -39 25 C-39.43359375 21.44140625 -39.43359375 21.44140625 -39.4375 17.5625 C-39.45683594 16.28503906 -39.47617188 15.00757813 -39.49609375 13.69140625 C-38.79450399 8.47091554 -36.47284847 5.47284847 -32.8125 1.8125 C-22.77279051 -4.65753501 -10.83992888 -4.69537026 0 0 Z " fill="#FF723F" transform="translate(230,464)"/>
<path d="M0 0 C3.375 2.0625 3.375 2.0625 6 5 C6.76850054 8.45825241 6.83066843 10.55884031 5.02734375 13.6875 C1.37526739 18.28719967 -3.30542748 21.77578873 -7.875 25.4140625 C-11.4048811 28.27814122 -14.69524634 31.38177231 -18 34.5 C-22.91253747 39.12673161 -27.95127096 43.47274989 -33.22265625 47.69140625 C-36.99979846 50.8310561 -40.55954502 54.18156263 -44.14233398 57.5390625 C-48.52606079 61.62292953 -53.0706146 65.42569739 -57.7578125 69.16015625 C-59.9770376 70.9077724 -59.9770376 70.9077724 -61.6796875 72.74609375 C-63 74 -63 74 -65 74 C-66.68732277 72.01739574 -68.35366057 70.0167658 -70 68 C-70.66 67.67 -71.32 67.34 -72 67 C-70.356683 62.79629957 -67.25667024 59.98272839 -64.11328125 56.87036133 C-63.51148041 56.26666214 -62.90967957 55.66296295 -62.28964233 55.04096985 C-60.30211246 53.04973962 -58.30748141 51.06579368 -56.3125 49.08203125 C-54.92972986 47.70045326 -53.54732922 46.31850536 -52.1652832 44.936203 C-49.26984792 42.04233123 -46.37108497 39.15184909 -43.46972656 36.26391602 C-39.74532068 32.55652353 -36.02755538 28.84255841 -32.31202698 25.12627125 C-29.45909979 22.27361554 -26.6035772 19.42357017 -23.74716187 16.57440758 C-22.37498895 15.20542284 -21.00342615 13.83582629 -19.63247681 12.46561623 C-17.71972853 10.55502855 -15.80372828 8.6477659 -13.88671875 6.74145508 C-13.03259903 5.88665558 -13.03259903 5.88665558 -12.16122437 5.0145874 C-8.00632674 0.8936674 -5.9714157 -0.6890095 0 0 Z " fill="#FFFBF9" transform="translate(360,168)"/>
<path d="M0 0 C3.25654378 1.33033278 5.2460982 2.75191689 8 5 C6.49403162 8.57825787 4.41843719 10.75092689 1.61328125 13.40625 C0.75798828 14.23253906 -0.09730469 15.05882812 -0.97851562 15.91015625 C-2.79063739 17.64258124 -4.60840224 19.36912197 -6.43164062 21.08984375 C-7.28306641 21.91613281 -8.13449219 22.74242187 -9.01171875 23.59375 C-9.80022217 24.34333984 -10.58872559 25.09292969 -11.40112305 25.86523438 C-13.21304001 27.82853206 -13.21304001 27.82853206 -12.96044922 30.04589844 C-11.81080819 32.38492405 -10.48822793 33.85181143 -8.62109375 35.671875 C-7.94755859 36.33574219 -7.27402344 36.99960938 -6.58007812 37.68359375 C-5.87302734 38.36550781 -5.16597656 39.04742187 -4.4375 39.75 C-3.72658203 40.44738281 -3.01566406 41.14476562 -2.28320312 41.86328125 C-0.52869286 43.5824658 1.23243352 45.29425872 3 47 C2.67 47.99 2.34 48.98 2 50 C-4.46093305 52.15364435 -13.14188116 52.31319976 -19.4375 49.5 C-25.7067256 45.70617678 -30.21563364 39.68737845 -33 33 C-34.03665053 25.14737222 -34.04709015 17.60188522 -29.5546875 10.86328125 C-21.44270693 1.14113369 -12.54416925 -1.49940977 0 0 Z " fill="#FFFBFA" transform="translate(388,121)"/>
<path d="M0 0 C1.40166664 -0.00956978 1.40166664 -0.00956978 2.83164978 -0.01933289 C3.84828201 -0.02044571 4.86491425 -0.02155853 5.91235352 -0.02270508 C6.94940933 -0.02603348 7.98646515 -0.02936188 9.0549469 -0.03279114 C11.25326085 -0.03786493 13.45158254 -0.04019932 15.64990234 -0.04003906 C19.02332177 -0.04222471 22.39641394 -0.06037347 25.76977539 -0.0793457 C27.90063364 -0.08227962 30.03149345 -0.08426443 32.16235352 -0.08520508 C33.17696152 -0.09239059 34.19156952 -0.09957611 35.23692322 -0.10697937 C36.17451981 -0.10390274 37.11211639 -0.10082611 38.078125 -0.09765625 C38.90561752 -0.09908127 39.73311005 -0.10050629 40.5856781 -0.10197449 C42.60375977 0.14526367 42.60375977 0.14526367 44.60375977 2.14526367 C44.85375977 4.64526367 44.85375977 4.64526367 44.60375977 7.14526367 C42.60375977 9.14526367 42.60375977 9.14526367 40.72436523 9.37231445 C39.9807373 9.36184082 39.23710937 9.35136719 38.47094727 9.34057617 C37.26245117 9.3309082 37.26245117 9.3309082 36.02954102 9.32104492 C35.1877832 9.30428711 34.34602539 9.2875293 33.47875977 9.27026367 C32.20452148 9.25672852 32.20452148 9.25672852 30.90454102 9.24291992 C28.80416093 9.21932015 26.70392532 9.1834485 24.60375977 9.14526367 C24.6104216 10.0052597 24.61708344 10.86525574 24.62394714 11.75131226 C24.68398631 19.84453854 24.72969742 27.93769034 24.75919628 36.03108788 C24.77487165 40.19228976 24.79614368 44.35330808 24.83007812 48.5144043 C24.86260541 52.52793819 24.88059867 56.54129521 24.88839149 60.55495071 C24.89394699 62.08842378 24.90479521 63.62188685 24.92094994 65.15528488 C24.94263691 67.29848113 24.94573048 69.44094072 24.94433594 71.58422852 C24.95099777 72.80556488 24.95765961 74.02690125 24.96452332 75.2852478 C24.78594536 76.70095566 24.78594536 76.70095566 24.60375977 78.14526367 C21.38002299 80.29442152 20.33672303 80.5281317 16.60375977 80.14526367 C14.60375977 78.14526367 14.60375977 78.14526367 14.36325073 75.2852478 C14.36991257 73.45324326 14.36991257 73.45324326 14.37670898 71.58422852 C14.37641693 70.91094009 14.37612488 70.23765167 14.37582397 69.54396057 C14.37721929 67.31457713 14.3927896 65.08552635 14.40844727 62.85620117 C14.41217669 61.31206444 14.41502399 59.76792534 14.41702271 58.2237854 C14.42466477 54.15650924 14.44431809 50.08937556 14.46643066 46.02215576 C14.48687681 41.87310717 14.49602178 37.7240356 14.50610352 33.57495117 C14.52756352 25.43165657 14.56170628 17.28847783 14.60375977 9.14526367 C14.03866699 9.16097412 13.47357422 9.17668457 12.89135742 9.19287109 C10.33725954 9.25513413 7.78332105 9.29422503 5.22875977 9.33276367 C4.33930664 9.35790039 3.44985352 9.38303711 2.53344727 9.40893555 C1.25727539 9.4234375 1.25727539 9.4234375 -0.04467773 9.43823242 C-1.22296143 9.4617981 -1.22296143 9.4617981 -2.42504883 9.48583984 C-3.07554199 9.37344971 -3.72603516 9.26105957 -4.39624023 9.14526367 C-6.39624023 6.14526367 -6.39624023 6.14526367 -6.08374023 3.52026367 C-4.95199426 -0.38940422 -3.83989397 0.01770528 0 0 Z " fill="#FF7848" transform="translate(269.396240234375,460.854736328125)"/>
<path d="M0 0 C1.21766574 3.65299722 0.37512409 4.93933371 -1.24755859 8.29223633 C-1.59898926 8.97954834 -1.95041992 9.66686035 -2.3125 10.375 C-2.67424316 11.08744873 -3.03598633 11.79989746 -3.40869141 12.53393555 C-8.90436656 22.99438731 -16.44316841 31.65716001 -24.48046875 40.26953125 C-26.42045268 42.37193244 -28.29812897 44.49758694 -30.1640625 46.6640625 C-34.65455145 51.81051325 -39.39786586 56.69544342 -44.1875 61.5625 C-45.52071289 62.95178711 -45.52071289 62.95178711 -46.88085938 64.36914062 C-48.16766602 65.67334961 -48.16766602 65.67334961 -49.48046875 67.00390625 C-50.63905396 68.19222046 -50.63905396 68.19222046 -51.82104492 69.40454102 C-54 71 -54 71 -56.13500977 70.87890625 C-58.89785804 69.57687015 -60.64709893 67.63317612 -62.75 65.4375 C-63.54921875 64.61121094 -64.3484375 63.78492188 -65.171875 62.93359375 C-66.07679688 61.97646484 -66.07679688 61.97646484 -67 61 C-65.5045292 57.40278644 -63.47293692 55.36902779 -60.5625 52.8125 C-59.66144531 52.01972656 -58.76039063 51.22695312 -57.83203125 50.41015625 C-55.17087053 48.14541672 -52.47262233 45.9401984 -49.75 43.75 C-44.67657078 39.6511278 -39.93930819 35.26760012 -35.19458008 30.80004883 C-30.8843808 26.76347555 -26.40822438 23.01466256 -21.796875 19.32421875 C-17.92645402 16.10787729 -14.2553349 12.69398596 -10.58959961 9.24780273 C-7.15951434 6.02996583 -3.63880731 2.98066727 0 0 Z " fill="#FFFAF8" transform="translate(366,185)"/>
<path d="M0 0 C3.17625 -0.061875 6.3525 -0.12375 9.625 -0.1875 C11.1092749 -0.22846802 11.1092749 -0.22846802 12.62353516 -0.27026367 C17.80390065 -0.31895722 21.62718046 -0.10133817 26 3 C29.33738648 6.96668181 29.51856984 10.93757154 29.5 15.9375 C29.52835938 16.62779297 29.55671875 17.31808594 29.5859375 18.02929688 C29.60033474 21.82656774 29.07806563 24.41338607 26.78125 27.37890625 C21.28489025 32.55876214 16.38281894 32.26343041 9.1875 32.125 C6.155625 32.08375 3.12375 32.0425 0 32 C0 21.44 0 10.88 0 0 Z " fill="#FFFBF9" transform="translate(39,470)"/>
<path d="M0 0 C2.77875056 1.37924178 3.86312945 3.53788039 5.10498047 6.29370117 C7.26585577 13.69771554 6.98639077 21.50784212 3.68701172 28.49291992 C1.52654919 32.23977923 -0.84874618 35.12178384 -4.12548828 37.93041992 C-7.40648237 36.52938541 -9.19963763 34.93695677 -11.43798828 32.18041992 C-14.70845379 28.30116646 -18.19804545 25.13649571 -22.12548828 21.93041992 C-19.76226723 16.49132137 -15.37001523 12.76645763 -11.25048828 8.61791992 C-10.43451172 7.76907227 -9.61853516 6.92022461 -8.77783203 6.0456543 C-7.98763672 5.24836914 -7.19744141 4.45108398 -6.38330078 3.62963867 C-5.66287598 2.89575928 -4.94245117 2.16187988 -4.20019531 1.40576172 C-2.12548828 -0.06958008 -2.12548828 -0.06958008 0 0 Z " fill="#FFF9F7" transform="translate(400.12548828125,130.069580078125)"/>
<path d="M0 0 C2.87725231 3.33843993 4.00178725 6.57897668 5.26171875 10.77734375 C5.45723831 11.42570694 5.65275787 12.07407013 5.85420227 12.74208069 C6.26399377 14.10835026 6.66969651 15.47585212 7.0715332 16.84448242 C7.68543842 18.93049487 8.31533884 21.01118223 8.94726562 23.09179688 C9.34471601 24.42419139 9.74123186 25.7568651 10.13671875 27.08984375 C10.49467529 28.29503662 10.85263184 29.50022949 11.22143555 30.74194336 C12 34 12 34 12 39 C4.41 39 -3.18 39 -11 39 C-9.87240356 32.23442136 -9.87240356 32.23442136 -8.984375 29.00390625 C-8.78739014 28.28702637 -8.59040527 27.57014648 -8.38745117 26.83154297 C-8.17709229 26.08275879 -7.9667334 25.33397461 -7.75 24.5625 C-7.53255127 23.78277832 -7.31510254 23.00305664 -7.09106445 22.19970703 C-4.97325286 14.71408971 -2.5474653 7.34970839 0 0 Z " fill="#FFF8F6" transform="translate(462,476)"/>
<path d="M0 0 C4.69017742 3.90848119 9.05066053 7.97956146 13.30078125 12.36328125 C14.91671284 14.08269037 14.91671284 14.08269037 17 15 C17 15.66 17 16.32 17 17 C13.68727224 16.85908107 10.37488029 16.71134606 7.0625 16.5625 C6.13630859 16.52318359 5.21011719 16.48386719 4.25585938 16.44335938 C-1.53513419 16.17920879 -7.24539503 15.70235691 -13 15 C-11.16307611 10.99625569 -8.50882084 8.28042066 -5.375 5.25 C-4.859375 4.74339844 -4.34375 4.23679687 -3.8125 3.71484375 C-2.54616661 2.47196098 -1.2736856 1.23534724 0 0 Z " fill="#FFFAF8" transform="translate(213,308)"/>
<path d="M0 0 C3.63303084 1.69586126 5.94549046 3.73800488 8.75 6.625 C9.54921875 7.44226563 10.3484375 8.25953125 11.171875 9.1015625 C11.77515625 9.72804687 12.3784375 10.35453125 13 11 C10.64811095 13.35188905 9.37237093 13.56392522 6.16796875 14.2890625 C4.72260742 14.61777344 4.72260742 14.61777344 3.24804688 14.953125 C2.23806641 15.17484375 1.22808594 15.3965625 0.1875 15.625 C-1.31006836 15.96917969 -1.31006836 15.96917969 -2.83789062 16.3203125 C-7.3248013 17.32471089 -11.38254198 18.13591439 -16 18 C-14.6415798 14.95667235 -13.11536976 12.87690849 -10.7421875 10.546875 C-10.11699219 9.928125 -9.49179687 9.309375 -8.84765625 8.671875 C-8.19667969 8.03765625 -7.54570312 7.4034375 -6.875 6.75 C-6.21628906 6.1003125 -5.55757813 5.450625 -4.87890625 4.78125 C-3.25703357 3.18288273 -1.6306719 1.58938103 0 0 Z " fill="#FFF6F4" transform="translate(268,221)"/>
<path d="M0 0 C0.66 0.33 1.32 0.66 2 1 C1.27683594 1.68835938 1.27683594 1.68835938 0.5390625 2.390625 C-0.09257812 3.00421875 -0.72421875 3.6178125 -1.375 4.25 C-2.00148438 4.85328125 -2.62796875 5.4565625 -3.2734375 6.078125 C-5.05152423 7.86407929 -5.05152423 7.86407929 -5.85546875 9.87890625 C-7.58699831 13.08785011 -10.25768734 15.27902175 -12.9375 17.6875 C-13.51508057 18.21351807 -14.09266113 18.73953613 -14.68774414 19.28149414 C-19.9687762 24.05288308 -25.44439228 28.5518827 -31 33 C-33.00780863 34.65760945 -35.00424737 36.32788293 -37 38 C-37 33.02944941 -32.97756621 29.99539909 -29.64453125 26.6015625 C-22.6155026 19.68674259 -15.22221867 13.24245157 -7.5078125 7.10546875 C-4.8479043 4.87230594 -2.42202032 2.48712839 0 0 Z " fill="#FF7949" transform="translate(341,202)"/>
<path d="M0 0 C2.86697492 1.28519565 4.97607712 2.57129254 7 5 C7 5.66 7 6.32 7 7 C-0.425 8.485 -0.425 8.485 -8 10 C-5.77502475 5.55004949 -3.55366005 3.39915309 0 0 Z " fill="#FFF6F3" transform="translate(284,237)"/>
<path d="M0 0 C0.33 0 0.66 0 1 0 C1 18.48 1 36.96 1 56 C0.67 56 0.34 56 0 56 C-0.33 39.5 -0.66 23 -1 6 C-1.99 6.495 -1.99 6.495 -3 7 C-1.125 1.125 -1.125 1.125 0 0 Z " fill="#FFF0EC" transform="translate(393,482)"/>
<path d="M0 0 C1.98 0.495 1.98 0.495 4 1 C4.05422947 2.4370809 4.09289723 3.87475462 4.125 5.3125 C4.14820313 6.11300781 4.17140625 6.91351563 4.1953125 7.73828125 C4 10 4 10 2 13 C1.01 13 0.02 13 -1 13 C-0.67 8.71 -0.34 4.42 0 0 Z " fill="#FF7D4E" transform="translate(397,142)"/>
<path d="M0 0 C1.65 0 3.3 0 5 0 C4.34 1.32 3.68 2.64 3 4 C1.68 4 0.36 4 -1 4 C-0.67 2.68 -0.34 1.36 0 0 Z " fill="#FF7948" transform="translate(283,245)"/>
</svg>
