<?xml version="1.0" encoding="UTF-8"?>
<svg version="1.1" xmlns="http://www.w3.org/2000/svg" width="2560" height="473">
<path d="M0 0 C0.87584747 0.00215515 1.75169495 0.0043103 2.65408325 0.00653076 C25.36933736 0.09595784 46.45438586 3.28995457 68.375 9.3125 C69.25833008 9.55419922 70.14166016 9.79589844 71.05175781 10.04492188 C98.26116959 17.73567097 124.25832232 31.83568477 146.375 49.3125 C147.74205078 50.38951172 147.74205078 50.38951172 149.13671875 51.48828125 C156.16471971 57.13273851 162.81403978 63.13858923 169.375 69.3125 C170.03371094 69.92867188 170.69242187 70.54484375 171.37109375 71.1796875 C176.52050359 76.15071132 180.90641963 81.73453249 185.375 87.3125 C186.035 88.10527344 186.695 88.89804688 187.375 89.71484375 C197.68155093 102.20322502 205.87177106 116.00423733 213.375 130.3125 C213.90456299 131.31240967 213.90456299 131.31240967 214.44482422 132.33251953 C227.26984583 156.883626 234.58107427 184.82806779 237.375 212.3125 C237.48585938 213.29992187 237.59671875 214.28734375 237.7109375 215.3046875 C243.70309596 277.65552552 223.44471638 339.91422987 183.92871094 388.07519531 C144.04244858 436.17257096 86.4118027 466.44122305 24.28686523 472.89135742 C16.42943136 473.62399413 8.57316201 473.66242497 0.6875 473.625 C-0.13882935 473.62284485 -0.96515869 473.6206897 -1.81652832 473.61846924 C-15.27478827 473.56243364 -28.38680233 472.91331558 -41.625 470.3125 C-43.18516846 470.00650879 -43.18516846 470.00650879 -44.77685547 469.69433594 C-85.17936728 461.512604 -122.33575937 444.32372045 -153.625 417.3125 C-154.40488281 416.64347656 -155.18476563 415.97445313 -155.98828125 415.28515625 C-199.82802345 376.75497366 -228.24587411 324.3451352 -235.625 266.3125 C-235.71232895 265.63188004 -235.7996579 264.95126007 -235.88963318 264.25001526 C-236.53304028 258.89795629 -236.79778061 253.6264439 -236.828125 248.23828125 C-236.83513931 247.40026978 -236.84215363 246.5622583 -236.84938049 245.69885254 C-236.86679347 243.00751307 -236.87323338 240.31639374 -236.875 237.625 C-236.87567474 236.70488129 -236.87634949 235.78476257 -236.87704468 234.83676147 C-236.86103788 221.10696567 -236.38277467 207.80272654 -233.625 194.3125 C-233.45339355 193.42723633 -233.28178711 192.54197266 -233.10498047 191.62988281 C-226.8829527 159.99151104 -214.57286347 128.57095646 -195.625 102.3125 C-194.92890625 101.343125 -194.2328125 100.37375 -193.515625 99.375 C-178.07401689 78.34812939 -160.04626547 59.29680743 -138.625 44.3125 C-137.99819336 43.8676123 -137.37138672 43.42272461 -136.72558594 42.96435547 C-96.63797393 14.66288057 -48.99330747 -0.2182174 0 0 Z " fill="#009688" transform="translate(236.625,-0.3125)"/>
<path d="M0 0 C17.82 0 35.64 0 54 0 C64.95066635 22.99639934 75.66867678 46.04195333 85.85577393 69.38452148 C87.03023216 72.06910484 88.21143337 74.75063892 89.39404297 77.43164062 C103.64287518 109.77373663 116.94238283 142.47882272 130.06625366 175.29046631 C131.34908315 178.49770454 132.63290399 181.70454475 133.91674805 184.91137695 C150.07021265 225.28270868 165.72013622 265.84145952 180.79296875 306.62890625 C181.4718173 308.46371373 182.15069232 310.29851142 182.82958984 312.13330078 C183.17955017 313.07941223 183.5295105 314.02552368 183.89007568 315.00030518 C186.35202463 321.65399805 188.81791962 328.30623024 191.28289795 334.95880127 C193.43832397 340.77649932 195.59269379 346.59458391 197.74462891 352.41357422 C201.53133029 362.65120305 205.32510817 372.88583971 209.16015625 383.10546875 C209.78043261 384.76168962 210.40063412 386.41793852 211.02075195 388.07421875 C212.14035768 391.06450342 213.26599366 394.05241631 214.39526367 397.0390625 C214.88355512 398.34235265 215.37160905 399.64573183 215.859375 400.94921875 C216.27670898 402.05612061 216.69404297 403.16302246 217.12402344 404.3034668 C218 407 218 407 218 410 C197.21 410 176.42 410 155 410 C151.827394 402.8616365 148.98296529 395.81972816 146.3125 388.5 C146.08778015 387.88648682 145.8630603 387.27297363 145.63153076 386.64086914 C139.86416359 370.87616886 134.40400288 355.00208367 128.92700195 339.13476562 C128.57513321 338.1155603 128.22326447 337.09635498 127.86073303 336.04626465 C127.17562183 334.06089409 126.49114694 332.07530382 125.80735779 330.08947754 C124.35921729 325.89190077 122.90147109 321.69963579 121.38183594 317.52734375 C121.143591 316.87245972 120.90534607 316.21757568 120.65988159 315.54284668 C120.04750322 313.86986893 119.42814824 312.1994492 118.80810547 310.52929688 C118 308 118 308 118 305 C56.95 305 -4.1 305 -67 305 C-67.66 307.97 -68.32 310.94 -69 314 C-69.57211605 315.86108345 -70.18126118 317.71153724 -70.84082031 319.54345703 C-71.1963649 320.53935349 -71.55190948 321.53524994 -71.91822815 322.56132507 C-72.30099411 323.61616592 -72.68376007 324.67100677 -73.078125 325.7578125 C-73.68363441 327.44696526 -73.68363441 327.44696526 -74.30137634 329.17024231 C-75.61240538 332.82371337 -76.93104614 336.47438328 -78.25 340.125 C-79.15452064 342.63988864 -80.05864548 345.15491551 -80.9621582 347.67016602 C-82.77552175 352.71650675 -84.59216626 357.76165243 -86.41064453 362.80615234 C-88.75392062 369.31027265 -91.08146302 375.81989157 -93.40234375 382.33203125 C-94.36344117 385.02519983 -95.32479473 387.71827681 -96.28625488 390.41131592 C-96.88571289 392.09159273 -97.48443061 393.77213384 -98.08239746 395.45294189 C-98.89992994 397.7495362 -99.72096265 400.04484762 -100.54296875 402.33984375 C-100.89934669 403.34504814 -100.89934669 403.34504814 -101.26292419 404.37055969 C-102.88583394 408.88583394 -102.88583394 408.88583394 -104 410 C-105.8718094 410.09386381 -107.7471806 410.11743804 -109.62133789 410.11352539 C-110.82250748 410.11344986 -112.02367706 410.11337433 -113.26124573 410.11329651 C-114.5685112 410.10813522 -115.87577667 410.10297394 -117.22265625 410.09765625 C-118.56644132 410.09579198 -119.91022707 410.09436812 -121.25401306 410.09336853 C-124.79682277 410.08954402 -128.3395917 410.07971432 -131.88238525 410.06866455 C-135.49515227 410.05844899 -139.10792584 410.0538706 -142.72070312 410.04882812 C-149.8138188 410.03809198 -156.90690674 410.02101636 -164 410 C-163.31421884 405.6058827 -162.30993183 401.7352173 -160.75390625 397.5625 C-160.51621017 396.92034042 -160.2785141 396.27818085 -160.03361511 395.61656189 C-159.21503233 393.40910146 -158.38869318 391.20462242 -157.5625 389 C-156.95100872 387.3563829 -156.34002806 385.71257575 -155.72949219 384.06860352 C-154.31405067 380.25973488 -152.89534064 376.45210027 -151.47509766 372.64501953 C-148.96282423 365.90613903 -146.46504761 359.16191831 -143.9683094 352.41727257 C-115.13561987 274.53586817 -86.13693751 196.78292601 -7 15 C-3.535 7.575 -3.535 7.575 0 0 Z M25 68 C2.18600717 116.05201424 -16.75730161 165.67406955 -35.02099609 215.59619141 C-36.61964743 219.96526453 -38.226835 224.33112457 -39.83786011 228.69564819 C-40.98461644 231.80454134 -42.12718238 234.91496081 -43.26843262 238.02587891 C-43.79257211 239.45269861 -44.31817728 240.87898087 -44.84533691 242.3046875 C-45.55905804 244.23662684 -46.26669295 246.17068367 -46.97265625 248.10546875 C-47.56445679 249.71651489 -47.56445679 249.71651489 -48.16821289 251.36010742 C-49.1502596 254.01558229 -49.1502596 254.01558229 -49 257 C0.17 257 49.34 257 100 257 C99.08965597 252.44827983 97.7753764 248.3176953 96.18359375 243.984375 C95.8958609 243.19351501 95.60812805 242.40265503 95.31167603 241.58782959 C94.35822939 238.97350671 93.39841222 236.36158744 92.4375 233.75 C92.10531464 232.84419189 91.77312927 231.93838379 91.43087769 231.00512695 C84.87876777 213.15407586 78.01588694 195.43171876 71.04356384 177.74133301 C68.62860685 171.61087513 66.23662704 165.47178309 63.85546875 159.328125 C51.92905628 128.57125844 39.33372649 98.17335476 26 68 C25.67 68 25.34 68 25 68 Z " fill="#009688" transform="translate(1872,30)"/>
<path d="M0 0 C17.95930831 16.84236278 28.86389232 36.39458987 33.75 60.5625 C34.0903125 62.22732422 34.0903125 62.22732422 34.4375 63.92578125 C40.03236537 97.61153316 35.29902879 135.63488477 15.37109375 164.01953125 C-7.26819933 195.04739114 -42.22050722 208.79853505 -78.875 215.6875 C-118.08501055 221.62841069 -153.86541936 220.5625 -194.25 220.5625 C-194.25 270.7225 -194.25 320.8825 -194.25 372.5625 C-213.39 372.5625 -232.53 372.5625 -252.25 372.5625 C-252.25 239.2425 -252.25 105.9225 -252.25 -31.4375 C-222.04317226 -37.24650533 -222.04317226 -37.24650533 -211.625 -38.125 C-210.37195068 -38.2381958 -209.11890137 -38.3513916 -207.82788086 -38.46801758 C-138.85734163 -44.48853821 -55.62480492 -48.52007906 0 0 Z M-172.3125 10 C-174.05043823 10.05873291 -174.05043823 10.05873291 -175.82348633 10.11865234 C-176.9245874 10.16070801 -178.02568848 10.20276367 -179.16015625 10.24609375 C-180.12058838 10.28275146 -181.08102051 10.31940918 -182.07055664 10.35717773 C-186.14172296 10.62008573 -190.19530567 11.11197841 -194.25 11.5625 C-194.25 64.0325 -194.25 116.5025 -194.25 170.5625 C-115.87588078 175.10855238 -115.87588078 175.10855238 -43.85546875 143.41796875 C-27.88750186 125.91784312 -24.25248 104.07742521 -25.09326172 81.08056641 C-26.21035331 63.13402016 -33.56319419 47.11190705 -46.65234375 34.71875 C-81.1118234 6.11479096 -130.18232119 8.55865315 -172.3125 10 Z " fill="#009688" transform="translate(2396.25,67.4375)"/>
<path d="M0 0 C2.7250099 -0.00963497 5.44924061 -0.04071053 8.17407227 -0.07226562 C36.40297744 -0.24229909 69.03301195 5.01889102 90.32446289 25.24023438 C91.22293945 26.04976562 92.12141602 26.85929687 93.04711914 27.69335938 C114.12619418 47.52566657 122.48593116 76.19305459 123.59190941 104.49660683 C123.72310339 109.96524086 123.69707666 115.4319392 123.66503906 120.90161133 C123.66419002 122.97364794 123.66467332 125.04568546 123.66636658 127.11772156 C123.66721715 132.67010175 123.6497457 138.22228217 123.6286447 143.77461648 C123.60971918 149.60414344 123.60811509 155.43367643 123.60456848 161.26322937 C123.59529418 172.26985617 123.57074376 183.27639214 123.54052001 194.28297919 C123.50683118 206.82735011 123.4904538 219.37172567 123.47543371 231.91613066 C123.44418941 257.69088199 123.39152001 283.46555306 123.32446289 309.24023438 C100.60367711 315.8155589 76.04709669 316.8992534 52.56848145 319.0345459 C50.53131554 319.2212741 48.49474516 319.4144712 46.45825195 319.60839844 C3.68954304 323.6409111 -48.55826188 325.96193831 -84.45678711 298.08007812 C-86.96579069 295.88469999 -89.33239906 293.61121956 -91.67553711 291.24023438 C-92.44510742 290.49257813 -93.21467773 289.74492187 -94.00756836 288.97460938 C-110.78740826 271.70881159 -116.10622168 247.31477311 -115.98803711 223.92773438 C-115.98239746 222.74856445 -115.97675781 221.56939453 -115.97094727 220.35449219 C-115.64504796 196.85747468 -108.50742661 177.55147103 -92.36303711 160.42773438 C-63.71181219 133.37937519 -20.63824077 126.40685686 17.37670898 127.31298828 C56.99032785 129.07316685 56.99032785 129.07316685 69.32446289 135.24023438 C68.37606957 96.55362937 68.37606957 96.55362937 49.16430664 64.08398438 C36.92712125 53.95665853 21.79896537 49.16835387 6.09008789 49.07226562 C5.41929199 49.06794022 4.74849609 49.06361481 4.05737305 49.05915833 C1.89632985 49.04910094 -0.26447531 49.04896946 -2.42553711 49.05273438 C-3.53983093 49.05463776 -3.53983093 49.05463776 -4.67663574 49.05657959 C-29.53067213 49.13760061 -53.93007326 52.56641627 -77.67553711 60.24023438 C-78.53670511 54.67279851 -79.3909764 49.10436321 -80.23901367 43.53491211 C-80.52815837 41.64237272 -80.81914992 39.75011449 -81.11206055 37.8581543 C-81.53397579 35.1307736 -81.94912873 32.402434 -82.36303711 29.67382812 C-82.49427979 28.83500595 -82.62552246 27.99618378 -82.76074219 27.13194275 C-83.46492409 22.44049611 -83.80924865 17.98420831 -83.67553711 13.24023438 C-78.17619963 10.67288467 -72.77952552 9.1171522 -66.86303711 7.80273438 C-65.92032959 7.59100586 -64.97762207 7.37927734 -64.00634766 7.16113281 C-42.78875218 2.5464312 -21.68654854 0.04611298 0 0 Z M-31.67553711 181.24023438 C-32.48120117 181.60890625 -33.28686523 181.97757813 -34.11694336 182.35742188 C-44.31046437 187.49850204 -53.62403368 195.94717238 -57.42553711 206.86523438 C-61.68157365 220.57363114 -60.46974006 235.67636681 -54.36303711 248.67773438 C-47.50687772 261.07156096 -37.07205175 266.62328136 -23.71789551 270.66908264 C-10.37885009 274.39938723 3.22722297 274.71619805 16.98168945 274.63134766 C20.05734083 274.61532358 23.13166451 274.63126003 26.20727539 274.65039062 C48.05737259 274.70314581 48.05737259 274.70314581 69.32446289 270.24023438 C69.32446289 240.54023438 69.32446289 210.84023438 69.32446289 180.24023438 C42.83857604 166.99729095 -5.17853294 168.82789301 -31.67553711 181.24023438 Z " fill="#009688" transform="translate(1037.675537109375,124.759765625)"/>
<path d="M0 0 C81.51 0 163.02 0 247 0 C247 16.5 247 33 247 50 C184.63 50 122.26 50 58 50 C58 90.26 58 130.52 58 172 C113.44 172 168.88 172 226 172 C226 188.5 226 205 226 222 C170.56 222 115.12 222 58 222 C58 284.04 58 346.08 58 410 C38.86 410 19.72 410 0 410 C0 274.7 0 139.4 0 0 Z " fill="#009687" transform="translate(661,30)"/>
<path d="M0 0 C0.78424347 0.00215515 1.56848694 0.0043103 2.37649536 0.00653076 C30.13561904 0.12811023 58.40270354 3.92670365 84.625 13.3125 C83.97707996 19.06933502 83.01741591 24.6714787 81.8125 30.3359375 C81.63871826 31.16332428 81.46493652 31.99071106 81.28588867 32.84317017 C80.92102686 34.57628426 80.5545507 36.30905923 80.18652344 38.04150391 C79.62236819 40.69990153 79.06475554 43.35961435 78.5078125 46.01953125 C78.15142841 47.70841499 77.79467099 49.39722 77.4375 51.0859375 C77.18746216 52.27961441 77.18746216 52.27961441 76.93237305 53.49740601 C75.74019313 59.08211374 75.74019313 59.08211374 74.625 61.3125 C70.45773465 60.6694035 66.64415736 59.32654453 62.68237305 57.93798828 C44.44903257 51.56204452 26.70435801 48.12042349 7.37402344 48.01733398 C5.88889991 48.00588763 4.40381509 47.98555395 2.91894531 47.95581055 C-11.07703242 47.67682614 -24.44562994 49.46568182 -37 56.125 C-37.66604248 56.46901855 -38.33208496 56.81303711 -39.01831055 57.16748047 C-46.27811936 61.08484415 -50.24056447 65.72386662 -53.375 73.3125 C-55.92842071 83.79402417 -55.1664721 94.75698109 -49.74609375 104.12890625 C-37.24650729 122.68889827 -12.68619817 129.30979116 7.18945312 136.97949219 C78.97469087 164.83249091 78.97469087 164.83249091 94 195.875 C103.48050321 218.05728237 104.78336408 245.54672966 95.88183594 268.20410156 C86.78991786 289.52269721 69.58659473 302.73130471 48.65039062 311.51464844 C-3.31550507 331.98530262 -65.26115248 323.21552236 -116.375 305.3125 C-113.13160989 288.95997365 -109.80375056 272.6271787 -106.375 256.3125 C-100.67106819 257.94813133 -95.04123844 259.74659828 -89.43359375 261.6875 C-69.78924129 268.52820061 -69.78924129 268.52820061 -49.375 272.3125 C-48.6104248 272.40096191 -47.84584961 272.48942383 -47.05810547 272.58056641 C-38.67511309 273.46389501 -30.29502948 273.5556816 -21.875 273.5625 C-21.12376862 273.56317474 -20.37253723 273.56384949 -19.59854126 273.56454468 C-0.410568 273.53721538 21.46347158 272.79644803 36.625 259.3125 C43.68248023 250.81577933 44.58424685 241.02798925 43.625 230.3125 C40.76017922 218.43973757 33.91833312 209.66249222 23.70849609 203.07617188 C4.75119476 191.65621849 -15.82267211 183.32137342 -36.33740234 175.1875 C-53.61519725 168.32049302 -69.87118441 161.11951238 -84.375 149.3125 C-85.014375 148.83683594 -85.65375 148.36117187 -86.3125 147.87109375 C-100.70346056 136.71143683 -108.38802274 119.04070655 -110.93359375 101.453125 C-113.67494072 78.1199918 -108.89332524 55.0999624 -94.375 36.3125 C-75.80540255 13.83280152 -47.75038471 3.57287083 -19.46337891 0.4987793 C-12.99219188 -0.07843788 -6.49138826 -0.03236996 0 0 Z " fill="#009688" transform="translate(1343.375,124.6875)"/>
<path d="M0 0 C0 31.02 0 62.04 0 94 C38.28 94 76.56 94 116 94 C116 109.51 116 125.02 116 141 C77.72 141 39.44 141 0 141 C0.09083443 168.56941069 0.09083443 168.56941069 0.20898438 196.13867188 C0.26328166 207.3960623 0.31470186 218.653409 0.34643555 229.91088867 C0.36957037 238.11297387 0.4031375 246.31494236 0.44870156 254.51693469 C0.4724274 258.85087775 0.49129008 263.18470672 0.49761391 267.518713 C-0.760327 308.81024894 -0.760327 308.81024894 16 345 C27.50279107 356.28493518 43.1675554 358.34034102 58.69702148 358.23657227 C76.34301567 357.84761612 92.02824033 354.45342092 108.32373047 347.69287109 C109.15791504 347.34691895 109.99209961 347.0009668 110.8515625 346.64453125 C111.60260254 346.32846924 112.35364258 346.01240723 113.12744141 345.68676758 C115 345 115 345 117 345 C119.88083343 355.19922394 122.33709158 365.4948261 124.75 375.8125 C124.91033722 376.4949176 125.07067444 377.17733521 125.23587036 377.88043213 C125.69631286 379.84285517 126.15291703 381.80617758 126.609375 383.76953125 C126.87717773 384.92042236 127.14498047 386.07131348 127.42089844 387.25708008 C128 390 128 390 128 392 C90.94205653 406.4637239 53.54869409 412.5956635 14 405 C13.29214355 404.86609863 12.58428711 404.73219727 11.85498047 404.59423828 C-8.28709196 400.56777602 -25.29474762 388.67639235 -37.12890625 372 C-53.37826989 346.839695 -56.19840189 316.5519648 -56.12025452 287.26895142 C-56.12153615 285.46853789 -56.12153615 285.46853789 -56.12284368 283.63175237 C-56.12419252 280.34551018 -56.12111914 277.05930869 -56.11606562 273.77307129 C-56.11170713 270.21227531 -56.11321134 266.65148089 -56.1139679 263.09068298 C-56.11448974 256.93637275 -56.1113786 250.7820732 -56.10573006 244.62776566 C-56.09756878 235.72990388 -56.09499511 226.83204721 -56.09374207 217.93418209 C-56.09155879 203.49452993 -56.08491841 189.05488345 -56.07543945 174.61523438 C-56.06624655 160.59667997 -56.05917492 146.57812712 -56.05493164 132.55957031 C-56.05466892 131.69403273 -56.05440619 130.82849514 -56.05413551 129.93672915 C-56.05283038 125.5941533 -56.05156669 121.25157745 -56.05032361 116.90900159 C-56.03997356 80.93933038 -56.02237503 44.96966564 -56 9 C-52.67060862 8.36364365 -49.3410554 7.72813794 -46.01147461 7.09277344 C-45.07844261 6.91442963 -44.14541061 6.73608582 -43.18410492 6.55233765 C-35.32118734 5.05259216 -27.44922329 3.6197313 -19.5625 2.25 C-18.32435547 2.02957031 -17.08621094 1.80914062 -15.81054688 1.58203125 C-14.01907227 1.27072266 -14.01907227 1.27072266 -12.19140625 0.953125 C-11.14154541 0.76911133 -10.09168457 0.58509766 -9.01000977 0.39550781 C-6 0 -6 0 0 0 Z " fill="#009688" transform="translate(1566,38)"/>
<path d="M0 0 C19.14 0 38.28 0 58 0 C58 135.3 58 270.6 58 410 C38.86 410 19.72 410 0 410 C0 274.7 0 139.4 0 0 Z " fill="#009587" transform="translate(2502,30)"/>
<path d="M0 0 C1.0904811 0.00092179 2.1809622 0.00184359 3.30448818 0.00279331 C4.55115765 0.00141865 5.79782711 0.00004398 7.08227444 -0.00137234 C8.47653127 0.00216727 9.87078785 0.00580209 11.26504421 0.00952244 C12.72330123 0.0098043 14.18155839 0.00964659 15.63981533 0.00907993 C19.61071618 0.00879193 23.58158708 0.01468906 27.55248094 0.02165389 C31.69783233 0.02788702 35.84318434 0.02849119 39.9885397 0.0296793 C47.84377459 0.03279274 55.69899564 0.04100629 63.55422443 0.05102879 C72.49482531 0.06218954 81.43542684 0.06770028 90.37603295 0.07272422 C108.77255694 0.0831889 127.16906802 0.10078858 145.56558132 0.12304783 C142.60451046 3.12098412 139.77393622 5.86210098 136.29995632 8.25195408 C135.5013821 8.80560642 134.70280788 9.35925877 133.88003445 9.92968845 C133.03376492 10.50912205 132.18749538 11.08855564 131.31558132 11.68554783 C129.50805378 12.93650916 127.70076582 14.18781673 125.89370632 15.43945408 C124.99329617 16.06094334 124.09288601 16.68243259 123.1651907 17.32275486 C119.44727549 19.89750192 115.75549264 22.50840387 112.06558132 25.12304783 C105.06206583 30.07572318 98.03668368 34.99668923 91.00698757 39.91211033 C85.68378697 43.6358901 80.37013428 47.37275897 75.06558132 51.12304783 C68.06148372 56.07490512 61.0366888 60.99668565 54.00698757 65.91211033 C48.68378684 69.6358902 43.37014944 73.37278027 38.06558132 77.12304783 C28.58863869 83.82267434 19.07680593 90.47222438 9.56558132 97.12304783 C6.26558132 99.43304783 2.96558132 101.74304783 -0.43441868 104.12304783 C32.23558132 104.45304783 64.90558132 104.78304783 98.56558132 105.12304783 C92.94199856 110.7466306 92.94199856 110.7466306 89.40542507 113.18164158 C88.6220779 113.72514256 87.83873074 114.26864353 87.03164577 114.82861423 C86.19721951 115.40015232 85.36279324 115.97169041 84.50308132 116.56054783 C82.70351505 117.80651578 80.90403841 119.0526132 79.10464382 120.29882908 C78.18586452 120.93256443 77.26708523 121.56629978 76.32046413 122.21923923 C71.99299824 125.20980809 67.6857299 128.22903722 63.37808132 131.24804783 C62.54655544 131.82997898 61.71502956 132.41191013 60.85830593 133.01147556 C54.89380594 137.18668399 48.94340132 141.38150649 42.99844265 145.58447361 C36.68212092 150.04730885 30.34508549 154.48028003 24.00698757 158.91211033 C18.68378697 162.6358901 13.37013428 166.37275897 8.06558132 170.12304783 C1.06148372 175.07490512 -5.9633112 179.99668565 -12.99301243 184.91211033 C-18.31621303 188.6358901 -23.62986572 192.37275897 -28.93441868 196.12304783 C-35.93851628 201.07490512 -42.9633112 205.99668565 -49.99301243 210.91211033 C-55.31621303 214.6358901 -60.62986572 218.37275897 -65.93441868 222.12304783 C-72.9287103 227.06797234 -79.94197664 231.98531788 -86.96444798 236.89013767 C-91.06602438 239.756818 -95.1597474 242.63338185 -99.23519993 245.53711033 C-100.37698704 246.3492197 -100.37698704 246.3492197 -101.54184055 247.17773533 C-102.96047717 248.18799559 -104.37729798 249.2008131 -105.79184055 250.21679783 C-109.88147718 253.12681062 -114.03758257 255.69995316 -118.43441868 258.12304783 C-116.92999157 253.30041868 -115.02219114 248.78147105 -112.93441868 244.19336033 C-112.58693577 243.42337711 -112.23945286 242.6533939 -111.88144016 241.86007786 C-110.73511566 239.32151254 -109.58473724 236.78480546 -108.43441868 234.24804783 C-107.62291065 232.45261505 -106.81171812 230.65703963 -106.00082493 228.86132908 C-104.31584984 225.13063159 -102.62951822 221.40055179 -100.94223118 217.67089939 C-97.46492763 209.98181565 -94.00412855 202.28531873 -90.5433054 194.58880711 C-88.67446909 190.43319735 -86.80437565 186.27815339 -84.93441868 182.12304783 C-84.18441276 180.45638383 -83.43441276 178.78971716 -82.68441868 177.12304783 C-78.18441866 167.12304779 -78.18441866 167.12304779 -77.05940342 164.62301731 C-76.3094509 162.95645389 -75.55950176 161.28988895 -74.80955601 159.62332249 C-72.93385733 155.45506363 -71.05809976 151.2868313 -69.18222141 147.1186533 C-65.81552253 139.63773897 -62.44922223 132.15664679 -59.08516026 124.67454624 C-50.55028342 105.69203038 -41.99452825 86.7191951 -33.41009617 67.75903416 C-28.35699973 56.59740784 -23.31750194 45.42994699 -18.30941868 34.24804783 C-17.79435764 33.09828465 -17.27929661 31.94852146 -16.74862766 30.76391697 C-14.38789399 25.49190755 -12.03064194 20.21836354 -9.67660618 14.94336033 C-8.84592719 13.08656705 -8.01520124 11.22979477 -7.18441868 9.37304783 C-6.81300755 8.53789646 -6.44159641 7.70274509 -6.0589304 6.84228611 C-3.06319178 0.1548292 -3.06319178 0.1548292 0 0 Z " fill="#F8FCFC" transform="translate(223.4344186782837,106.87695217132568)"/>
</svg>
